<?xml version="1.0" encoding="UTF-8" standalone="no"?><!DOCTYPE svg PUBLIC "-//W3C//DTD SVG 1.1//EN" "http://www.w3.org/Graphics/SVG/1.1/DTD/svg11.dtd"><svg width="800px" height="200px" version="1.1" xmlns="http://www.w3.org/2000/svg" xmlns:xlink="http://www.w3.org/1999/xlink" xml:space="preserve" xmlns:serif="http://www.serif.com/" style="fill-rule:evenodd;clip-rule:evenodd;stroke-linejoin:round;stroke-miterlimit:1.41421;"><g id="Layer-1" serif:id="Layer 1"><path d="M82.938,16.522l95.95,0.227l48.245,83.478l-47.704,83.251l-95.949,-0.227l-48.246,-83.478l47.704,-83.251Z" style="fill:#fff;"/><path d="M203.538,58.522l24.127,41.767l-48.235,0.011l24.108,-41.778Z" style="fill:#f1c40f;fill-rule:nonzero;"/><path d="M179.41,16.755l24.128,41.767l-48.236,0.011l24.108,-41.778Z" style="fill:#e67e22;fill-rule:nonzero;"/><path d="M131.174,16.766l48.236,-0.011l-24.108,41.778l-24.128,-41.767Z" style="fill:#f1c40f;fill-rule:nonzero;"/><path d="M203.558,142.069l-48.236,0.011l24.108,-41.78l24.128,41.769Z" style="fill:#e74c3c;fill-rule:nonzero;"/><path d="M227.666,100.289l-24.108,41.78l-24.129,-41.768l48.237,-0.012Z" style="fill:#e67e22;fill-rule:nonzero;"/><path d="M179.45,183.848l-48.236,0.012l24.108,-41.78l24.128,41.768Z" style="fill:#e74c3c;fill-rule:nonzero;"/><path d="M203.558,142.069l-24.108,41.78l-24.128,-41.769l48.236,-0.011Z" style="fill:#c0392b;fill-rule:nonzero;"/><path d="M131.194,100.312l24.128,41.769l-48.236,0.011l24.108,-41.78Z" style="fill:#f1c40f;fill-rule:nonzero;"/><path d="M131.194,100.312l24.128,41.769l-48.236,0.011l24.108,-41.78Z" style="fill:#f1c40f;fill-rule:nonzero;"/><path d="M131.214,183.86l-48.236,0.012l24.108,-41.78l24.128,41.768Z" style="fill:#e74c3c;fill-rule:nonzero;"/><path d="M155.322,142.08l-24.108,41.78l-24.128,-41.768l48.236,-0.012Z" style="fill:#e67e22;fill-rule:nonzero;"/><path d="M107.086,142.092l-24.108,41.78l-24.129,-41.768l48.237,-0.012Z" style="fill:#c0392c;fill-rule:nonzero;"/><path d="M34.722,100.335l24.107,-41.779l24.13,41.768l-48.237,0.011Z" style="fill:#f1c40f;fill-rule:nonzero;"/><path d="M82.958,100.324l-24.108,41.78l-24.128,-41.769l48.236,-0.011Z" style="fill:#e67e22;fill-rule:nonzero;"/><path d="M131.174,16.766l24.127,41.767l-48.235,0.012l24.108,-41.779Z" style="fill:#e67e22;fill-rule:nonzero;"/><path d="M82.938,16.778l48.236,-0.012l-24.108,41.779l-24.128,-41.767Z" style="fill:#e74c3c;fill-rule:nonzero;"/><path d="M58.829,58.556l24.109,-41.778l24.128,41.767l-48.237,0.011Z" style="fill:#c0392b;fill-rule:nonzero;"/><path d="M155.301,58.533l-24.107,41.779l-24.128,-41.767l48.235,-0.012Z" style="fill:#e74c3c;fill-rule:nonzero;"/><path d="M107.066,58.545l-24.108,41.779l-24.129,-41.768l48.237,-0.011Z" style="fill:#e74c3c;fill-rule:nonzero;"/></g><text x="269.615px" y="142.246px" style="font-family:'Titillium-Bold', 'Titillium';font-weight:700;font-size:171.253px;fill:#4d4d4d;">n<tspan x="359.18px 448.745px 536.769px 618.97px " y="142.246px 142.246px 142.246px 142.246px ">upek</tspan></text></svg>