<?xml version="1.0" encoding="UTF-8" standalone="no"?><!DOCTYPE svg PUBLIC "-//W3C//DTD SVG 1.1//EN" "http://www.w3.org/Graphics/SVG/1.1/DTD/svg11.dtd"><svg width="800px" height="200px" version="1.1" xmlns="http://www.w3.org/2000/svg" xmlns:xlink="http://www.w3.org/1999/xlink" xml:space="preserve" xmlns:serif="http://www.serif.com/" style="fill-rule:evenodd;clip-rule:evenodd;stroke-linejoin:round;stroke-miterlimit:1.41421;"><g id="Layer-1" serif:id="Layer 1"><path d="M203.538,58.522l24.127,41.767l-48.235,0.011l24.108,-41.778Z" style="fill:#fff;fill-rule:nonzero;"/><path d="M179.41,16.755l24.128,41.767l-48.236,0.011l24.108,-41.778Z" style="fill:#fff;fill-rule:nonzero;"/><path d="M131.174,16.766l48.236,-0.011l-24.108,41.778l-24.128,-41.767Z" style="fill:#fff;fill-rule:nonzero;"/><path d="M203.558,142.069l-48.236,0.011l24.108,-41.78l24.128,41.769Z" style="fill:#fff;fill-rule:nonzero;"/><path d="M227.666,100.289l-24.108,41.78l-24.129,-41.768l48.237,-0.012Z" style="fill:#fff;fill-rule:nonzero;"/><path d="M179.45,183.848l-48.236,0.012l24.108,-41.78l24.128,41.768Z" style="fill:#fff;fill-rule:nonzero;"/><path d="M203.558,142.069l-24.108,41.78l-24.128,-41.769l48.236,-0.011Z" style="fill:#fff;fill-rule:nonzero;"/><path d="M131.194,100.312l24.128,41.769l-48.236,0.011l24.108,-41.78Z" style="fill:#fff;fill-rule:nonzero;"/><path d="M131.194,100.312l24.128,41.769l-48.236,0.011l24.108,-41.78Z" style="fill:#fff;fill-rule:nonzero;"/><path d="M131.214,183.86l-48.236,0.012l24.108,-41.78l24.128,41.768Z" style="fill:#fff;fill-rule:nonzero;"/><path d="M155.322,142.08l-24.108,41.78l-24.128,-41.768l48.236,-0.012Z" style="fill:#fff;fill-rule:nonzero;"/><path d="M107.086,142.092l-24.108,41.78l-24.129,-41.768l48.237,-0.012Z" style="fill:#fff;fill-rule:nonzero;"/><path d="M34.722,100.335l24.107,-41.779l24.13,41.768l-48.237,0.011Z" style="fill:#fff;fill-rule:nonzero;"/><path d="M82.958,100.324l-24.108,41.78l-24.128,-41.769l48.236,-0.011Z" style="fill:#fff;fill-rule:nonzero;"/><path d="M131.174,16.766l24.127,41.767l-48.235,0.012l24.108,-41.779Z" style="fill:#fff;fill-rule:nonzero;"/><path d="M82.938,16.778l48.236,-0.012l-24.108,41.779l-24.128,-41.767Z" style="fill:#fff;fill-rule:nonzero;"/><path d="M58.829,58.556l24.109,-41.778l24.128,41.767l-48.237,0.011Z" style="fill:#fff;fill-rule:nonzero;"/><path d="M155.301,58.533l-24.107,41.779l-24.128,-41.767l48.235,-0.012Z" style="fill:#fff;fill-rule:nonzero;"/><path d="M107.066,58.545l-24.108,41.779l-24.129,-41.768l48.237,-0.011Z" style="fill:#fff;fill-rule:nonzero;"/></g><text x="242.812px" y="152.556px" style="font-family:'Titillium-Bold', 'Titillium';font-weight:700;font-size:213.778px;fill:#fff;">n<tspan x="354.618px 466.423px 576.305px 678.918px " y="152.556px 152.556px 152.556px 152.556px ">upek</tspan></text></svg>