<?xml version="1.0" encoding="UTF-8" standalone="no"?><!DOCTYPE svg PUBLIC "-//W3C//DTD SVG 1.1//EN" "http://www.w3.org/Graphics/SVG/1.1/DTD/svg11.dtd"><svg width="100%" height="100%" viewBox="0 0 3750 3750" version="1.1" xmlns="http://www.w3.org/2000/svg" xmlns:xlink="http://www.w3.org/1999/xlink" xml:space="preserve" xmlns:serif="http://www.serif.com/" style="fill-rule:evenodd;clip-rule:evenodd;stroke-linejoin:round;stroke-miterlimit:1.41421;"><rect x="-425.025" y="-425.025" width="4600.05" height="4600.05" style="fill:#fff;fill-opacity:0;"/><path d="M265.761,1905.78c-0.533,-31.208 -0.315,-62.518 0.889,-93.948c6.191,-161.899 35.382,-319.37 85.864,-468.676c14.099,-17.013 22.59,-38.84 22.598,-62.603c16.468,-42.869 34.726,-84.994 54.736,-126.295c4.125,0.897 8.346,1.53 12.647,1.886c-112.51,231.72 -167.726,485.237 -164.801,738.569l-11.933,11.067Zm263.767,-906.302c-2.484,-3.327 -5.176,-6.494 -8.051,-9.48c75.725,-119.095 167.358,-229.22 273.642,-327.673c308.046,-285.349 704.226,-440.382 1121.78,-440.382c21.52,0 43.098,0.414 64.722,1.238c31.43,1.2 62.672,3.37 93.746,6.295l-11.945,11.051c-48.424,-4.274 -96.985,-6.409 -145.592,-6.409c-399.319,0 -799.646,144.407 -1115,436.529c-107.503,99.584 -198.661,210.349 -273.308,328.831Z" style="fill:#a3cfef;fill-rule:nonzero;"/><path d="M3335.59,1046.09c-59.142,-101.082 -129.963,-197.342 -212.768,-286.725c-118.198,-127.597 -252.159,-232.049 -396.084,-313.336l9.235,-8.552c145.135,82.758 278.384,188.092 395.179,314.175c82.103,88.64 153.335,184.608 213.27,286.25l-8.832,8.188Z" style="fill:#a3cfef;fill-rule:nonzero;"/><path d="M1920.05,3528.07c-21.521,0 -43.126,-0.421 -64.75,-1.265c-441.21,-16.828 -849.449,-204.526 -1149.51,-528.461c-116.795,-126.072 -211.64,-266.968 -283.079,-417.999l9.23,-8.552c70.059,149.704 163.981,291.252 282.183,418.842c323.05,348.749 763.344,525.287 1204.94,525.287c399.303,0 799.699,-144.457 1115.04,-436.567c402.501,-372.842 575.578,-901.994 512.592,-1408.88l11.12,-10.296c11.769,91.276 16.062,184.182 12.459,277.992c-16.871,441.218 -204.538,849.457 -528.458,1149.51c-308.046,285.364 -704.202,440.389 -1121.76,440.389Z" style="fill:#a3cfef;fill-rule:nonzero;"/><path d="M725.241,1220.93l-5.463,0c4.558,-9.151 7.736,-19.117 9.25,-29.606c40.906,-70.859 88.394,-138.492 142.272,-202.103l0,16.928c-56.362,67.893 -104.996,139.873 -146.059,214.781Zm2072.07,-384.641c-31.875,-26.991 -64.615,-52.23 -98.211,-75.794l0,-5.458l-7.843,0c-232.544,-160.711 -502.671,-240.054 -772.245,-240.054c-299.452,0 -598.118,98.031 -843.136,291.455l-17.717,0c224.191,-181.28 499.032,-286.775 792.492,-301.307c23.196,-1.15 46.327,-1.721 69.384,-1.721c325.477,0 635.747,113.84 884.567,324.813l-7.291,8.066Z" style="fill:#a3cfef;fill-rule:nonzero;"/><path d="M964.355,2860.21c-81.118,-78.431 -151.395,-165.326 -209.962,-258.849l0,-2.33l1.361,0l0.748,-15.909c58.777,96.555 130.526,187.084 215.155,269.015l-7.302,8.073Zm-209.13,-279.188l-0.832,0l0,-1.373c0.276,0.453 0.56,0.924 0.832,1.373Zm-132.527,-254.594c-35.168,-101.351 -58.475,-207.324 -69.139,-316.311l11.657,0c10.358,104.233 32.661,207.366 66.793,307.184c-3.297,2.848 -6.406,5.899 -9.311,9.127Z" style="fill:#a3cfef;fill-rule:nonzero;"/><path d="M3099.08,1175.77l-13.39,0c-4.182,-7.007 -8.437,-13.98 -12.765,-20.918l7.981,-8.809c6.187,9.836 12.244,19.745 18.174,29.727Z" style="fill:#a3cfef;fill-rule:nonzero;"/><path d="M1916.91,3246.6c-213.937,-0.004 -421.334,-49.221 -608.993,-142.855l7.974,-8.813c189.725,93.634 396.152,140.033 602.215,140.026c371.055,-0.016 740.815,-150.491 1008.94,-446.554c224.601,-248 340.495,-556.855 350.661,-867.619l11.677,0c-10.3,324.46 -133.938,631.617 -354.281,874.914c-245.926,271.537 -582.891,431.067 -948.798,449.18c-23.208,1.15 -46.323,1.721 -69.396,1.721Z" style="fill:#a3cfef;fill-rule:nonzero;"/><path d="M2473.73,3238.12l-4.182,-10.009c19.845,-8.291 39.783,-17.146 59.222,-26.308l4.65,9.813c-19.604,9.239 -39.676,18.144 -59.69,26.504Z" style="fill:#a3cfef;fill-rule:nonzero;"/><path d="M759.212,2808.58c-13.662,-16.717 -27.163,-34.021 -40.113,-51.398l8.702,-6.486c12.865,17.25 26.263,34.412 39.833,51.03l-8.422,6.854Z" style="fill:#a3cfef;fill-rule:nonzero;"/><path d="M681.295,2704.06c-12.156,-17.895 -24.062,-36.322 -35.39,-54.707l9.25,-5.704c11.247,18.27 23.065,36.54 35.129,54.315l-8.989,6.096Z" style="fill:#a3cfef;fill-rule:nonzero;"/><path d="M506.983,2354.72c-7.003,-20.485 -13.639,-41.419 -19.741,-62.254l10.419,-3.059c6.056,20.674 12.65,41.47 19.592,61.806l-10.27,3.507Z" style="fill:#a3cfef;fill-rule:nonzero;"/><path d="M941.267,2995.23c-16.457,-14.141 -32.803,-28.819 -48.573,-43.62l7.433,-7.916c15.655,14.693 31.874,29.264 48.208,43.306l-7.068,8.23Z" style="fill:#a3cfef;fill-rule:nonzero;"/><path d="M612.984,2593.12c-10.53,-18.945 -20.781,-38.388 -30.472,-57.769l9.733,-4.846c9.607,19.236 19.773,38.526 30.23,57.336l-9.491,5.279Z" style="fill:#a3cfef;fill-rule:nonzero;"/><path d="M554.663,2476.28c-8.794,-19.776 -17.266,-40.043 -25.189,-60.237l10.108,-3.972c7.863,20.041 16.281,40.159 25.002,59.812l-9.921,4.397Z" style="fill:#a3cfef;fill-rule:nonzero;"/><path d="M2351.11,3283.03l-3.277,-10.346c20.504,-6.49 41.154,-13.543 61.349,-20.93l3.726,10.193c-20.34,7.456 -41.132,14.547 -61.798,21.083Z" style="fill:#a3cfef;fill-rule:nonzero;"/><path d="M2096.41,3339.54l-1.422,-10.772c21.336,-2.802 42.899,-6.118 64.09,-9.852l1.878,10.699c-21.34,3.757 -43.052,7.092 -64.546,9.925Z" style="fill:#a3cfef;fill-rule:nonzero;"/><path d="M2225,3316.89l-2.339,-10.618c21.019,-4.654 42.198,-9.848 62.96,-15.406l2.806,10.484c-20.911,5.612 -42.256,10.833 -63.427,15.54Z" style="fill:#a3cfef;fill-rule:nonzero;"/><path d="M1043.94,3075.9c-17.602,-12.616 -35.178,-25.803 -52.233,-39.2l6.708,-8.545c16.936,13.29 34.386,26.393 51.851,38.913l-6.326,8.832Z" style="fill:#a3cfef;fill-rule:nonzero;"/><path d="M1153.36,3147.26c-18.664,-11.04 -37.341,-22.636 -55.503,-34.485l5.938,-9.097c18.032,11.769 36.57,23.273 55.089,34.232l-5.524,9.35Z" style="fill:#a3cfef;fill-rule:nonzero;"/><path d="M1374.75,3254.29c-15.575,-5.996 -31.157,-12.191 -46.456,-18.692l4.235,-10.001c13.402,5.677 26.991,11.132 40.619,16.437l1.602,12.256Z" style="fill:#a3cfef;fill-rule:nonzero;"/><path d="M1268.69,3208.73c-19.577,-9.342 -39.204,-19.259 -58.356,-29.464l5.118,-9.583c18.994,10.12 38.487,19.96 57.91,29.253l-4.672,9.794Z" style="fill:#a3cfef;fill-rule:nonzero;"/><path d="M846.103,2905.9c-15.111,-15.502 -30.1,-31.556 -44.521,-47.699l8.104,-7.233c14.314,16.031 29.183,31.966 44.195,47.35l-7.778,7.582Z" style="fill:#a3cfef;fill-rule:nonzero;"/><path d="M731.228,996.663l-8.698,-6.517c12.972,-17.3 26.531,-34.589 40.32,-51.375l8.387,6.9c-13.674,16.66 -27.14,33.818 -40.009,50.992Z" style="fill:#a3cfef;fill-rule:nonzero;"/><path d="M904.133,803.963l-7.418,-7.935c15.847,-14.809 32.208,-29.441 48.642,-43.486l7.049,8.257c-16.307,13.942 -32.545,28.463 -48.273,43.164Z" style="fill:#a3cfef;fill-rule:nonzero;"/><path d="M813.45,896.489l-8.08,-7.257c14.486,-16.15 29.509,-32.162 44.651,-47.61l7.751,7.601c-15.027,15.33 -29.931,31.231 -44.322,47.266Z" style="fill:#a3cfef;fill-rule:nonzero;"/><path d="M1002.53,719.816l-6.678,-8.556c14.057,-10.979 28.486,-21.727 42.98,-32.227l1.602,12.271c-12.777,9.33 -25.492,18.821 -37.904,28.512Z" style="fill:#a3cfef;fill-rule:nonzero;"/><path d="M1588.75,444.43l-1.419,-10.798c19.175,-4.186 38.575,-8.077 57.823,-11.485l1.89,10.691c-19.413,3.439 -38.978,7.36 -58.294,11.592Z" style="fill:#a3cfef;fill-rule:nonzero;"/><path d="M1967.86,3350.83l-1.403,-10.802c21.286,-0.928 42.865,-2.343 64.09,-4.206l0.951,10.826c-21.084,1.836 -42.482,3.228 -63.638,4.182Z" style="fill:#a3cfef;fill-rule:nonzero;"/><path d="M669.07,1086.27c-3.423,-1.415 -6.946,-2.638 -10.549,-3.661c8.46,-13.26 17.162,-26.439 25.986,-39.35l8.966,6.122c-8.276,12.106 -16.449,24.457 -24.403,36.889Z" style="fill:#a3cfef;fill-rule:nonzero;"/><path d="M542.454,1332.4l-8.123,0l-3.082,-1.223c8.019,-20.163 16.602,-40.419 25.507,-60.211l9.909,4.459c-8.433,18.729 -16.568,37.889 -24.211,56.975Z" style="fill:#a3cfef;fill-rule:nonzero;"/><path d="M3318.86,2298.28l-10.408,-3.101c6.187,-20.692 11.995,-41.764 17.235,-62.649l10.534,2.649c-5.282,21.042 -11.124,42.259 -17.361,63.101Z" style="fill:#a3cfef;fill-rule:nonzero;"/><path d="M3005.39,908.874c-2.109,-2.399 -4.221,-4.787 -6.337,-7.16l8.115,-7.23c2.642,2.967 5.283,5.957 7.912,8.959c-3.339,1.633 -6.574,3.446 -9.69,5.431Z" style="fill:#a3cfef;fill-rule:nonzero;"/><path d="M2591.86,3182.48l-5.064,-9.611c18.983,-9.989 37.993,-20.546 56.516,-31.399l5.478,9.381c-18.657,10.909 -37.824,21.57 -56.93,31.629Z" style="fill:#a3cfef;fill-rule:nonzero;"/><path d="M1843.4,411.356l-0.467,-10.848c20.692,-0.878 41.653,-1.33 62.342,-1.33c0.985,0 1.97,0.003 2.955,0.003l-0.023,10.857c-0.847,-0.004 -1.69,-0.004 -2.541,-0.004c-20.658,0 -41.6,0.444 -62.266,1.322Z" style="fill:#a3cfef;fill-rule:nonzero;"/><path d="M1711.11,422.933l-1.403,-10.776l3.139,-0.41c21.586,-2.814 43.417,-5.183 64.938,-7.042l0.935,10.822c-21.36,1.844 -43.056,4.194 -64.454,6.98l-3.155,0.426Z" style="fill:#a3cfef;fill-rule:nonzero;"/><path d="M2037.69,416.006c-21.424,-1.94 -43.171,-3.427 -64.669,-4.42l0.495,-10.841c21.655,0.993 43.574,2.496 65.16,4.447l-0.986,10.814Z" style="fill:#a3cfef;fill-rule:nonzero;"/><path d="M2416.33,502.422c-20.24,-7.571 -40.864,-14.774 -61.303,-21.402l3.346,-10.331c20.605,6.674 41.374,13.931 61.775,21.559l-3.818,10.174Z" style="fill:#a3cfef;fill-rule:nonzero;"/><path d="M2292.79,462.374c-20.731,-5.726 -41.926,-11.066 -62.986,-15.87l2.403,-10.591c21.229,4.849 42.593,10.223 63.473,15.977l-2.89,10.484Z" style="fill:#a3cfef;fill-rule:nonzero;"/><path d="M2166.11,433.459c-21.187,-3.848 -42.719,-7.264 -64.013,-10.162l1.46,-10.756c21.444,2.905 43.149,6.355 64.516,10.235l-1.963,10.683Z" style="fill:#a3cfef;fill-rule:nonzero;"/><path d="M3185.98,1165.04c-10.442,-18.795 -21.413,-37.587 -32.626,-55.841l9.258,-5.689c11.3,18.393 22.348,37.322 32.856,56.259l-9.488,5.271Z" style="fill:#a3cfef;fill-rule:nonzero;"/><path d="M3001.24,2863.45l-8.096,-7.256c14.406,-16.001 28.623,-32.542 42.282,-49.144l8.391,6.904c-13.762,16.725 -28.083,33.373 -42.577,49.496Z" style="fill:#a3cfef;fill-rule:nonzero;"/><path d="M3084.18,2762.62l-8.683,-6.525c12.907,-17.181 25.626,-34.903 37.809,-52.685l8.954,6.141c-12.255,17.909 -25.074,35.761 -38.08,53.069Z" style="fill:#a3cfef;fill-rule:nonzero;"/><path d="M3157.98,2654.85l-9.208,-5.746c11.366,-18.274 22.467,-37.057 33.032,-55.818l9.472,5.336c-10.645,18.887 -21.831,37.813 -33.296,56.228Z" style="fill:#a3cfef;fill-rule:nonzero;"/><path d="M2704.3,3116.73l-5.892,-9.131c18.005,-11.623 36.033,-23.832 53.563,-36.31l6.28,8.874c-17.638,12.547 -35.819,24.841 -53.951,36.567Z" style="fill:#a3cfef;fill-rule:nonzero;"/><path d="M3222.04,2540.96l-9.679,-4.899c9.725,-19.221 19.144,-38.913 27.995,-58.547l9.913,4.477c-8.939,19.765 -18.419,39.602 -28.229,58.969Z" style="fill:#a3cfef;fill-rule:nonzero;"/><path d="M2810.55,3041.21l-6.673,-8.56c16.916,-13.187 33.806,-26.953 50.178,-40.937l7.054,8.261c-16.499,14.088 -33.512,27.961 -50.559,41.236Z" style="fill:#a3cfef;fill-rule:nonzero;"/><path d="M2909.8,2956.56l-7.409,-7.958c15.736,-14.663 31.345,-29.878 46.387,-45.203l7.767,7.609c-15.165,15.433 -30.894,30.751 -46.745,45.552Z" style="fill:#a3cfef;fill-rule:nonzero;"/><path d="M3275.82,2421.81l-10.085,-4.037c7.981,-19.991 15.632,-40.453 22.724,-60.82l10.255,3.573c-7.142,20.516 -14.847,41.139 -22.894,61.284Z" style="fill:#a3cfef;fill-rule:nonzero;"/><path d="M3350.75,2171.35l-10.626,-2.174c4.297,-21.076 8.184,-42.546 11.538,-63.791l10.738,1.694c-3.385,21.421 -7.307,43.038 -11.65,64.271Z" style="fill:#a3cfef;fill-rule:nonzero;"/><path d="M3371.16,2042.36l-10.795,-1.219c2.415,-21.375 4.362,-43.087 5.823,-64.561l10.841,0.743c-1.468,21.628 -3.45,43.521 -5.869,65.037Z" style="fill:#a3cfef;fill-rule:nonzero;"/><path d="M1918.5,3173.82c-497.442,0 -929.543,-279.606 -1147.72,-690.272c13.762,-22.007 29.843,-48.005 31.744,-85.009c0,-0.003 0,-0.003 0,-0.007c0.004,-0.054 0.004,-0.108 0.008,-0.161c0,-0.02 0,-0.035 0.003,-0.054c0,-0.046 0.004,-0.096 0.008,-0.146c0,-0.023 0,-0.042 0,-0.065c0.004,-0.042 0.004,-0.076 0.008,-0.123c0,-0.026 0.004,-0.061 0.004,-0.088c0.004,-0.049 0.004,-0.107 0.007,-0.157c0,-0.019 0,-0.034 0,-0.05c0.004,-0.05 0.008,-0.092 0.008,-0.138c0,-0.023 0.004,-0.053 0.004,-0.076c0,-0.027 0.004,-0.062 0.004,-0.088c0,-0.047 0.004,-0.085 0.004,-0.127c0.003,-0.015 0.003,-0.027 0.003,-0.038c0,-0.058 0.004,-0.115 0.008,-0.173c0,-0.019 0,-0.046 0,-0.065c0.004,-0.05 0.004,-0.096 0.008,-0.146c0,-0.019 0,-0.042 0,-0.061c0.003,-0.054 0.003,-0.1 0.007,-0.153c0,-0.016 0,-0.035 0,-0.054c0.004,-0.054 0.008,-0.107 0.008,-0.161c0,-0.008 0,-0.019 0,-0.027c0.004,-0.061 0.004,-0.122 0.008,-0.184c0,-0.015 0,-0.034 0,-0.053c0.004,-0.046 0.004,-0.108 0.007,-0.158c0,-0.019 0,-0.034 0,-0.05c0.004,-0.057 0.004,-0.107 0.008,-0.164c0,-0.008 0,-0.023 0,-0.031c0.004,-0.134 0.008,-0.261 0.011,-0.395c0,-0.011 0,-0.023 0,-0.034c0.004,-0.058 0.004,-0.119 0.008,-0.177c0,-0.034 0,-0.061 0,-0.092c0,-0.042 0.004,-0.084 0.004,-0.122c0,-0.023 0,-0.046 0,-0.069c0.004,-0.05 0.004,-0.1 0.004,-0.15c0,-0.007 0.004,-0.011 0.004,-0.023c0,-0.061 0,-0.126 0.004,-0.192c0,-0.011 0,-0.019 0,-0.034c0,-0.057 0.003,-0.119 0.003,-0.18c0,-0.012 0,-0.023 0,-0.035c0,-0.057 0.004,-0.119 0.004,-0.176c0,-0.027 0,-0.054 0,-0.08c0.004,-0.043 0.004,-0.093 0.004,-0.139c0,-0.003 0,-0.007 0,-0.011c0.004,-0.069 0.004,-0.134 0.004,-0.203c0,-0.019 0,-0.031 0,-0.05c0.004,-0.054 0.004,-0.107 0.004,-0.165c0,-0.034 0,-0.073 0,-0.107c0.004,-0.039 0.004,-0.073 0.004,-0.108l0,-0.214c0.003,-0.019 0.003,-0.042 0.003,-0.062c0,-0.095 0,-0.187 0,-0.283c0.004,-0.069 0.004,-0.127 0.004,-0.196c0,-0.099 0,-0.207 0.004,-0.306l0,-0.675c0.081,-58.865 -47.633,-99.71 -102.719,-99.71c-3.964,0 -7.893,0.234 -11.769,0.682c-30.548,-90.065 -51.493,-184.604 -61.594,-282.32l22.571,0c6.796,34.983 21.309,66.931 41.546,94.224c0,0 63.181,69.588 132.681,69.588l2052.34,0c75.268,0 141.639,-53.825 160.059,-68.829c36.256,-37.762 58.259,-88.896 58.248,-144.392c0,-5.608 -0.226,-11.262 -0.686,-16.951c-0.633,-7.801 -1.683,-15.46 -3.128,-22.969l126.267,0c-24.112,696.102 -596.036,1253.03 -1298.02,1253.03Zm-131.151,-800.573c-99.265,0 -179.72,80.455 -179.72,179.716c0,99.265 80.455,179.716 179.72,179.716c99.261,0 179.72,-80.451 179.72,-179.716c0,-41.65 -14.168,-79.995 -37.947,-110.466l6.992,-6.996c3.887,-3.887 5.831,-8.982 5.831,-14.08c0,-5.099 -1.944,-10.193 -5.831,-14.08c-3.89,-3.895 -8.985,-5.842 -14.083,-5.842c-5.095,0 -10.193,1.947 -14.088,5.842l-6.643,6.639c-31.012,-25.457 -70.692,-40.733 -113.951,-40.733Zm-775.074,-599.594c-38.062,-26.557 -84.208,-41.987 -133.394,-41.987c-6.306,0 -12.658,0.253 -19.056,0.771c-3.829,0.31 -7.639,0.709 -11.411,1.2l0,-358.164c0,-23.782 -19.294,-43.072 -43.095,-43.072l-67.203,0c36.842,-80.018 81.547,-155.597 133.183,-225.839l0,357.343l277.739,0c-84.449,73.904 -136.924,182.354 -136.859,301.146c0,2.86 0.031,5.731 0.096,8.602Zm1955.15,-5.071c-25.266,-10.837 -52.993,-16.802 -81.893,-16.802c-5.639,0 -11.301,0.226 -17.016,0.686c-14.272,1.15 -28.076,3.738 -41.309,7.579c6.667,-19.336 11.474,-39.545 14.161,-60.418l0,14.532c0,1.104 0.717,2.005 1.564,2.005l44.72,0c0.863,0 1.556,-0.901 1.556,-2.005l0,-19.953l0,-15.483l0,-86.116l0,-54.484l0,-330.161l0,-25.105l0,-109.316l-47.84,0l0,548.123c-19.19,-149.663 -147.064,-265.346 -301.947,-265.346c-39.733,0 -77.665,7.701 -112.472,21.547c-5.129,-34.792 -13.635,-68.341 -25.162,-100.373l297.309,0l0,-440.643c123.783,93.224 230.363,208.06 314.118,338.92l-45.789,0l0,592.813Zm-1625.38,-397.253l0,-564.894l-162.041,0c84.591,-58.57 176.443,-107.346 273.979,-144.706l0,304.163l42.198,0l0,34.581l156.996,0c-134.299,76.296 -230.095,209.969 -256.81,365.075c-5.416,0.215 -10.856,0.46 -16.318,0.901c-12.865,1.039 -25.55,2.676 -38.004,4.88Zm997.268,-214.719c-44.717,-64.213 -103.364,-117.6 -171.187,-156.137l2.541,0l0,-365.156l-42.198,0l0,-34.577l-462.55,0c81.701,-16.1 166.154,-24.541 252.577,-24.541c240.184,0 465.107,65.175 658.106,178.835l-237.289,0l0,401.576Z" style="fill:#a3ceef;fill-rule:nonzero;"/><path d="M178.482,1280.52c0,54.208 44.111,98.315 98.303,98.315c54.224,0 98.327,-44.107 98.327,-98.315c0,-54.215 -44.103,-98.322 -98.327,-98.322c-54.192,0 -98.303,44.107 -98.303,98.322Z" style="fill:#fff;fill-rule:nonzero;"/><path d="M371.661,1279.71c0,52.03 -42.197,94.243 -94.262,94.243c-52.034,0 -94.228,-42.213 -94.228,-94.243c0,-52.046 42.194,-94.252 94.228,-94.252c52.065,0 94.262,42.206 94.262,94.252Z" style="fill:#fdd21b;fill-rule:nonzero;"/><path d="M352.372,1058.16c0,54.22 44.111,98.319 98.307,98.319c54.223,0 98.322,-44.099 98.322,-98.319c0,-54.219 -44.099,-98.322 -98.322,-98.322c-54.196,0 -98.307,44.103 -98.307,98.322Z" style="fill:#fff;fill-rule:nonzero;"/><path d="M545.547,1057.35c0,52.03 -42.19,94.243 -94.255,94.243c-52.042,0 -94.232,-42.213 -94.232,-94.243c0,-52.042 42.19,-94.247 94.232,-94.247c52.065,0 94.255,42.205 94.255,94.247Z" style="fill:#fdd21b;fill-rule:nonzero;"/><path d="M533.399,1177.22c0,54.22 44.111,98.327 98.315,98.327c54.215,0 98.322,-44.107 98.322,-98.327c0,-54.211 -44.107,-98.322 -98.322,-98.322c-54.204,0 -98.315,44.111 -98.315,98.322Z" style="fill:#fff;fill-rule:nonzero;"/><path d="M726.582,1176.41c0,52.034 -42.194,94.243 -94.259,94.243c-52.038,0 -94.232,-42.209 -94.232,-94.243c0,-52.054 42.194,-94.252 94.232,-94.252c52.065,0 94.259,42.198 94.259,94.252Z" style="fill:#fdd21b;fill-rule:nonzero;"/><path d="M635.44,1208.97c5.39,-0.226 9.614,-1.702 12.642,-4.458c3.021,-2.756 4.543,-6.068 4.543,-9.929c0,-8.215 -5.731,-13.125 -17.185,-14.716l0,29.103Zm-8.127,-68.606c-4.577,0.357 -8.226,1.756 -10.956,4.209c-2.733,2.442 -4.101,5.539 -4.101,9.281c0,7.352 5.021,11.979 15.057,13.892l0,-27.382Zm8.127,90.587l-8.127,0l0,-12.85c-14.831,-1.602 -24.334,-8.556 -28.505,-20.853l8.986,-3.531c3.465,9.373 9.97,14.46 19.519,15.253l0,-30.905c-10.35,-2.484 -17.062,-5.731 -20.148,-9.725c-3.09,-3.998 -4.627,-8.437 -4.627,-13.317c0,-12.88 8.257,-20.696 24.775,-23.449l0,-10.99l8.127,0l0,10.99c13.099,1.154 21.689,7.015 25.779,17.58l-8.997,2.937c-2.453,-7.234 -8.05,-11.144 -16.782,-11.727l0,28.505c18.339,3.289 27.504,11.55 27.504,24.779c0,5.681 -2.081,10.96 -6.256,15.824c-4.174,4.861 -11.258,7.736 -21.248,8.629l0,12.85Z" style="fill:#fff;fill-rule:nonzero;"/><path d="M453.983,1090.01c5.401,-0.226 9.622,-1.709 12.647,-4.462c3.02,-2.756 4.542,-6.064 4.542,-9.928c0,-8.215 -5.735,-13.122 -17.189,-14.72l0,29.11Zm-8.123,-68.609c-4.573,0.356 -8.226,1.755 -10.952,4.212c-2.733,2.438 -4.101,5.54 -4.101,9.277c0,7.349 5.021,11.979 15.053,13.892l0,-27.381Zm8.123,90.586l-8.123,0l0,-12.853c-14.827,-1.599 -24.33,-8.549 -28.505,-20.846l8.99,-3.531c3.465,9.369 9.963,14.452 19.515,15.253l0,-30.908c-10.346,-2.484 -17.058,-5.727 -20.144,-9.726c-3.09,-3.99 -4.631,-8.437 -4.631,-13.32c0,-12.877 8.257,-20.693 24.775,-23.445l0,-10.987l8.123,0l0,10.987c13.103,1.15 21.697,7.019 25.783,17.583l-8.993,2.933c-2.453,-7.237 -8.05,-11.148 -16.79,-11.726l0,28.508c18.343,3.286 27.512,11.546 27.512,24.779c0,5.685 -2.081,10.96 -6.26,15.817c-4.174,4.864 -11.258,7.743 -21.252,8.629l0,12.853Z" style="fill:#fff;fill-rule:nonzero;"/><path d="M280.029,1312.54c5.393,-0.23 9.614,-1.709 12.646,-4.462c3.02,-2.756 4.535,-6.064 4.535,-9.924c0,-8.219 -5.727,-13.122 -17.181,-14.72l0,29.106Zm-8.127,-68.609c-4.573,0.356 -8.227,1.755 -10.956,4.213c-2.733,2.438 -4.098,5.535 -4.098,9.276c0,7.353 5.022,11.984 15.054,13.893l0,-27.382Zm8.127,90.586l-8.127,0l0,-12.849c-14.828,-1.599 -24.335,-8.552 -28.505,-20.85l8.989,-3.534c3.462,9.376 9.967,14.455 19.516,15.256l0,-30.908c-10.347,-2.48 -17.063,-5.727 -20.148,-9.725c-3.086,-3.998 -4.627,-8.437 -4.627,-13.321c0,-12.873 8.261,-20.693 24.775,-23.445l0,-10.983l8.127,0l0,10.983c13.098,1.158 21.693,7.015 25.779,17.584l-8.993,2.932c-2.457,-7.237 -8.05,-11.144 -16.786,-11.726l0,28.509c18.338,3.285 27.504,11.546 27.504,24.775c0,5.685 -2.078,10.963 -6.256,15.82c-4.171,4.865 -11.255,7.744 -21.248,8.633l0,12.849Z" style="fill:#fff;fill-rule:nonzero;"/><path d="M631.714,1275.55l-0.752,-0.012l0,-4.891c0.453,0.007 0.905,0.011 1.361,0.011c52.065,0 94.259,-42.209 94.259,-94.243c0,-52.054 -42.194,-94.252 -94.259,-94.252c-0.456,0 -0.908,0.004 -1.361,0.012l0,-3.258l0.752,-0.016c54.215,0 98.322,44.111 98.322,98.322c0,4.788 -0.345,9.496 -1.008,14.103c-1.514,10.489 -4.692,20.455 -9.25,29.606c-16.116,32.349 -49.539,54.618 -88.064,54.618Z" style="fill:#fff;fill-rule:nonzero;"/><path d="M632.323,1270.65c-0.456,0 -0.908,-0.004 -1.361,-0.011l0,-39.687l4.478,0l0,-12.85c9.99,-0.893 17.074,-3.768 21.248,-8.629c4.175,-4.864 6.256,-10.143 6.256,-15.824c0,-13.229 -9.165,-21.49 -27.504,-24.779l0,-28.505c8.732,0.583 14.329,4.493 16.782,11.727l8.997,-2.937c-4.09,-10.565 -12.68,-16.426 -25.779,-17.58l0,-10.99l-4.478,0l0,-38.418c0.453,-0.008 0.905,-0.012 1.361,-0.012c52.065,0 94.259,42.198 94.259,94.252c0,52.034 -42.194,94.243 -94.259,94.243Zm3.117,-61.679l0,-29.103c11.454,1.591 17.185,6.501 17.185,14.716c0,3.861 -1.522,7.173 -4.543,9.929c-3.028,2.756 -7.252,4.232 -12.642,4.458Z" style="fill:#fddb4a;fill-rule:nonzero;"/><path d="M635.44,1230.95l-4.478,0l0,-110.367l4.478,0l0,10.99c13.099,1.154 21.689,7.015 25.779,17.58l-8.997,2.937c-2.453,-7.234 -8.05,-11.144 -16.782,-11.727l0,28.505c18.339,3.289 27.504,11.55 27.504,24.779c0,5.681 -2.081,10.96 -6.256,15.824c-4.174,4.861 -11.258,7.736 -21.248,8.629l0,12.85Zm0,-51.084l0,29.103c5.39,-0.226 9.614,-1.702 12.642,-4.458c3.021,-2.756 4.543,-6.068 4.543,-9.929c0,-8.215 -5.731,-13.125 -17.185,-14.716Z" style="fill:#fff;fill-rule:nonzero;"/><path d="M276.785,1378.83l-0.739,0c0.249,0 0.49,0 0.739,0c30.434,0 57.681,-13.896 75.729,-35.673c-18.048,21.777 -45.295,35.673 -75.729,35.673Z" style="fill:#70b3e2;fill-rule:nonzero;"/><path d="M276.046,1182.2l0.126,-0.004c-0.042,0 -0.084,0.004 -0.126,0.004Z" style="fill:#70b3e2;fill-rule:nonzero;"/><path d="M276.785,1378.83c-0.249,0 -0.49,0 -0.739,-0.004l0,-4.888c0.448,0.008 0.904,0.012 1.353,0.012c52.065,0 94.262,-42.213 94.262,-94.243c0,-52.046 -42.197,-94.252 -94.262,-94.252c-0.449,0 -0.905,0.004 -1.353,0.008l0,-3.266c0.042,0 0.084,-0.004 0.126,-0.004l0.613,0c54.224,0 98.327,44.107 98.327,98.322c0,0.016 0,0.023 0,0.039c-0.008,23.763 -8.499,45.59 -22.598,62.603c-18.048,21.777 -45.295,35.673 -75.729,35.673Z" style="fill:#fff;fill-rule:nonzero;"/><path d="M277.399,1373.95c-0.449,0 -0.905,-0.004 -1.353,-0.012l0,-39.426l3.983,0l0,-12.849c9.993,-0.889 17.077,-3.768 21.248,-8.633c4.178,-4.857 6.256,-10.135 6.256,-15.82c0,-13.229 -9.166,-21.49 -27.504,-24.775l0,-28.509c8.736,0.582 14.329,4.489 16.786,11.726l8.993,-2.932c-4.086,-10.569 -12.681,-16.426 -25.779,-17.584l0,-10.983l-3.983,0l0,-38.69c0.448,-0.004 0.904,-0.008 1.353,-0.008c52.065,0 94.262,42.206 94.262,94.252c0,52.03 -42.197,94.243 -94.262,94.243Zm2.63,-61.415l0,-29.106c11.454,1.598 17.181,6.501 17.181,14.72c0,3.86 -1.515,7.168 -4.535,9.924c-3.032,2.753 -7.253,4.232 -12.646,4.462Z" style="fill:#fddb4a;fill-rule:nonzero;"/><path d="M280.029,1334.51l-3.983,0l0,-110.359l3.983,0l0,10.983c13.098,1.158 21.693,7.015 25.779,17.584l-8.993,2.932c-2.457,-7.237 -8.05,-11.144 -16.786,-11.726l0,28.509c18.338,3.285 27.504,11.546 27.504,24.775c0,5.685 -2.078,10.963 -6.256,15.82c-4.171,4.865 -11.255,7.744 -21.248,8.633l0,12.849Zm0,-51.083l0,29.106c5.393,-0.23 9.614,-1.709 12.646,-4.462c3.02,-2.756 4.535,-6.064 4.535,-9.924c0,-8.219 -5.727,-13.122 -17.181,-14.72Z" style="fill:#fff;fill-rule:nonzero;"/><path d="M450.679,1156.48l-0.748,-0.016l0,-4.887c0.453,0.008 0.905,0.011 1.361,0.011c52.065,0 94.255,-42.213 94.255,-94.243c0,-52.042 -42.19,-94.247 -94.255,-94.247c-0.456,0 -0.908,0.003 -1.361,0.007l0,-3.262l0.748,-0.004c54.223,0 98.322,44.103 98.322,98.322c0,54.22 -44.099,98.319 -98.322,98.319Z" style="fill:#fff;fill-rule:nonzero;"/><path d="M451.292,1151.59c-0.456,0 -0.908,-0.003 -1.361,-0.011l0,-39.599l4.052,0l0,-12.853c9.994,-0.886 17.078,-3.765 21.252,-8.629c4.179,-4.857 6.26,-10.132 6.26,-15.817c0,-13.233 -9.169,-21.493 -27.512,-24.779l0,-28.508c8.74,0.578 14.337,4.489 16.79,11.726l8.993,-2.933c-4.086,-10.564 -12.68,-16.433 -25.783,-17.583l0,-10.987l-4.052,0l0,-38.51c0.453,-0.004 0.905,-0.007 1.361,-0.007c52.065,0 94.255,42.205 94.255,94.247c0,52.03 -42.19,94.243 -94.255,94.243Zm2.691,-61.587l0,-29.11c11.454,1.598 17.189,6.505 17.189,14.72c0,3.864 -1.522,7.172 -4.542,9.928c-3.025,2.753 -7.246,4.236 -12.647,4.462Z" style="fill:#fddb4a;fill-rule:nonzero;"/><path d="M453.983,1111.98l-4.052,0l0,-110.363l4.052,0l0,10.987c13.103,1.15 21.697,7.019 25.783,17.583l-8.993,2.933c-2.453,-7.237 -8.05,-11.148 -16.79,-11.726l0,28.508c18.343,3.286 27.512,11.546 27.512,24.779c0,5.685 -2.081,10.96 -6.26,15.817c-4.174,4.864 -11.258,7.743 -21.252,8.629l0,12.853Zm0,-51.087l0,29.11c5.401,-0.226 9.622,-1.709 12.647,-4.462c3.02,-2.756 4.542,-6.064 4.542,-9.928c0,-8.215 -5.735,-13.122 -17.189,-14.72Z" style="fill:#fff;fill-rule:nonzero;"/><path d="M2959.74,991.867c0,54.204 44.118,98.311 98.303,98.311c54.223,0 98.337,-44.107 98.337,-98.311c0,-54.219 -44.114,-98.326 -98.337,-98.326c-54.185,0 -98.303,44.107 -98.303,98.326Z" style="fill:#fff;fill-rule:nonzero;"/><path d="M3152.92,991.058c0,52.027 -42.19,94.24 -94.255,94.24c-52.034,0 -94.24,-42.213 -94.24,-94.24c0,-52.046 42.206,-94.259 94.24,-94.259c52.065,0 94.255,42.213 94.255,94.259Z" style="fill:#fdd21b;fill-rule:nonzero;"/><path d="M3061.29,1023.88c5.397,-0.222 9.614,-1.709 12.654,-4.462c3.017,-2.752 4.527,-6.06 4.527,-9.924c0,-8.215 -5.727,-13.122 -17.181,-14.72l0,29.106Zm-8.131,-68.602c-4.562,0.349 -8.222,1.752 -10.956,4.209c-2.717,2.438 -4.086,5.536 -4.086,9.277c0,7.349 5.018,11.979 15.042,13.892l0,-27.378Zm8.131,90.579l-8.131,0l0,-12.845c-14.816,-1.599 -24.327,-8.557 -28.505,-20.85l8.993,-3.535c3.466,9.373 9.967,14.456 19.512,15.253l0,-30.904c-10.335,-2.484 -17.055,-5.727 -20.14,-9.726c-3.086,-3.998 -4.627,-8.441 -4.627,-13.32c0,-12.877 8.257,-20.693 24.767,-23.445l0,-10.987l8.131,0l0,10.987c13.102,1.153 21.697,7.015 25.787,17.579l-8.993,2.937c-2.45,-7.238 -8.05,-11.144 -16.794,-11.723l0,28.505c18.335,3.286 27.508,11.543 27.508,24.775c0,5.689 -2.074,10.964 -6.26,15.821c-4.17,4.864 -11.255,7.743 -21.248,8.633l0,12.845Z" style="fill:#fff;fill-rule:nonzero;"/><path d="M3058.05,1090.18l-0.74,0c0.245,-0.004 0.491,0 0.74,0c54.223,0 98.337,-44.107 98.337,-98.311c0,54.204 -44.114,98.311 -98.337,98.311Zm-0.74,-196.633l0.74,-0.004c-0.249,0 -0.495,0.004 -0.74,0.004Z" style="fill:#70b3e2;fill-rule:nonzero;"/><path d="M3058.05,1090.18c-0.249,0 -0.495,-0.004 -0.74,-0.004l0,-4.888c0.452,0.008 0.908,0.012 1.361,0.012c52.065,0 94.255,-42.213 94.255,-94.24c0,-52.046 -42.19,-94.259 -94.255,-94.259c-0.453,0 -0.909,0.004 -1.361,0.008l0,-3.262c0.245,0 0.491,-0.004 0.74,-0.004c54.223,0 98.337,44.107 98.337,98.326c0,54.204 -44.114,98.311 -98.337,98.311Z" style="fill:#fff;fill-rule:nonzero;"/><path d="M3058.67,1085.3c-0.453,0 -0.909,-0.004 -1.361,-0.012l0,-39.426l3.983,0l0,-12.845c9.993,-0.89 17.078,-3.769 21.248,-8.633c4.186,-4.857 6.26,-10.132 6.26,-15.821c0,-13.232 -9.173,-21.489 -27.508,-24.775l0,-28.505c8.744,0.579 14.344,4.485 16.794,11.723l8.993,-2.937c-4.09,-10.564 -12.685,-16.426 -25.787,-17.579l0,-10.987l-3.983,0l0,-38.694c0.452,-0.004 0.908,-0.008 1.361,-0.008c52.065,0 94.255,42.213 94.255,94.259c0,52.027 -42.19,94.24 -94.255,94.24Zm2.622,-61.415l0,-29.106c11.454,1.598 17.181,6.505 17.181,14.72c0,3.864 -1.51,7.172 -4.527,9.924c-3.04,2.753 -7.257,4.24 -12.654,4.462Z" style="fill:#fddb4a;fill-rule:nonzero;"/><path d="M3061.29,1045.86l-3.983,0l0,-110.359l3.983,0l0,10.987c13.102,1.153 21.697,7.015 25.787,17.579l-8.993,2.937c-2.45,-7.238 -8.05,-11.144 -16.794,-11.723l0,28.505c18.335,3.286 27.508,11.543 27.508,24.775c0,5.689 -2.074,10.964 -6.26,15.821c-4.17,4.864 -11.255,7.743 -21.248,8.633l0,12.845Zm0,-51.083l0,29.106c5.397,-0.222 9.614,-1.709 12.654,-4.462c3.017,-2.752 4.527,-6.06 4.527,-9.924c0,-8.215 -5.727,-13.122 -17.181,-14.72Z" style="fill:#fff;fill-rule:nonzero;"/><rect x="1453.99" y="600.74" width="674.486" height="365.152" style="fill:#2dbdbc;fill-rule:nonzero;"/><rect x="1473.9" y="618.792" width="634.665" height="329.034" style="fill:#fff;fill-rule:nonzero;"/><path d="M2090.69,721.005c-47.979,0 -88.049,-40.002 -88.153,-87.98l-425.811,0c-0.947,46.502 -39.327,85.051 -85.764,86.301l0,125.615c47.726,0.426 87.42,40.324 87.42,88.145l-0.027,0.518l424.271,0c-0.016,-0.687 -0.096,-1.381 -0.096,-2.082c0,-48.07 40.101,-88.175 88.16,-88.175l0.801,0.042l0,-122.423l-0.801,0.039Z" style="fill:#2dbdbc;fill-rule:nonzero;"/><path d="M1683.97,783.308c0,59.153 48.125,107.277 107.254,107.277c59.142,0 107.254,-48.124 107.254,-107.277c0,-59.137 -48.112,-107.261 -107.254,-107.261c-59.129,0 -107.254,48.124 -107.254,107.261Z" style="fill:#fff;fill-rule:nonzero;"/><path d="M1888.92,782.427c0,53.579 -43.436,97.026 -97.031,97.026c-53.575,0 -97.015,-43.447 -97.015,-97.026c0,-53.583 43.44,-97.031 97.015,-97.031c53.595,0 97.031,43.448 97.031,97.031Z" style="fill:#169fa5;fill-rule:nonzero;"/><rect x="1496.19" y="635.317" width="674.486" height="365.156" style="fill:#2dbdbc;fill-rule:nonzero;"/><rect x="1516.09" y="653.376" width="634.673" height="329.03" style="fill:#fff;fill-rule:nonzero;"/><path d="M2132.88,755.578c-47.99,0 -88.045,-39.998 -88.153,-87.98l-425.792,0c-0.962,46.51 -39.342,85.055 -85.775,86.309l0,125.615c47.721,0.418 87.416,40.312 87.416,88.134l-0.031,0.517l424.274,0c-0.007,-0.682 -0.099,-1.365 -0.099,-2.082c0,-48.055 40.108,-88.171 88.16,-88.171l0.809,0.05l0,-122.434l-0.809,0.042Z" style="fill:#2dbdbc;fill-rule:nonzero;"/><path d="M1726.16,817.901c0,59.149 48.121,107.258 107.254,107.258c59.153,0 107.274,-48.109 107.274,-107.258c0,-59.153 -48.121,-107.277 -107.274,-107.277c-59.133,0 -107.254,48.124 -107.254,107.277Z" style="fill:#fff;fill-rule:nonzero;"/><path d="M1931.12,817.011c0,53.568 -43.425,97.016 -97.027,97.016c-53.567,0 -97.011,-43.448 -97.011,-97.016c0,-53.575 43.444,-97.034 97.011,-97.034c53.602,0 97.027,43.459 97.027,97.034Z" style="fill:#2dbdbc;fill-rule:nonzero;"/><path d="M1839.79,853.325c5.884,-0.249 10.488,-1.871 13.8,-4.872c3.293,-3.002 4.949,-6.617 4.949,-10.829c0,-8.963 -6.249,-14.314 -18.749,-16.055l0,31.756Zm-8.859,-74.85c-4.991,0.387 -8.974,1.916 -11.96,4.592c-2.971,2.66 -4.466,6.041 -4.466,10.124c0,8.015 5.474,13.068 16.426,15.149l0,-29.865Zm8.859,98.824l-8.859,0l0,-14.019c-16.185,-1.748 -26.546,-9.33 -31.1,-22.743l9.805,-3.856c3.78,10.223 10.875,15.766 21.295,16.644l0,-33.718c-11.297,-2.714 -18.619,-6.253 -21.985,-10.611c-3.365,-4.363 -5.048,-9.208 -5.048,-14.532c0,-14.05 9.004,-22.579 27.033,-25.584l0,-11.984l8.859,0l0,11.984c14.29,1.261 23.667,7.659 28.121,19.189l-9.809,3.194c-2.672,-7.893 -8.775,-12.156 -18.312,-12.788l0,31.1c20.01,3.584 30.015,12.596 30.015,27.029c0,6.198 -2.273,11.956 -6.831,17.258c-4.558,5.305 -12.275,8.445 -23.184,9.418l0,14.019Z" style="fill:#fff;fill-rule:nonzero;"/><path d="M3363.82,1175.77l-396.39,0l0,678.914l552.052,0l0,-506.726l-155.662,-172.188Z" style="fill:#b0b0b1;fill-rule:nonzero;"/><path d="M3363.82,1175.77l-396.39,0l0,745.017l552.052,0l0,-572.829l-155.662,0l0,-172.188Z" style="fill:#fff;fill-rule:nonzero;"/><rect x="2967.43" y="1175.77" width="396.275" height="48.872" style="fill:#f16034;fill-rule:nonzero;"/><rect x="3030.21" y="1723.14" width="193.011" height="19.267" style="fill:#b0b0b1;fill-rule:nonzero;"/><rect x="3030.21" y="1770.22" width="426.482" height="19.259" style="fill:#b0b0b1;fill-rule:nonzero;"/><rect x="3030.21" y="1814.01" width="426.482" height="19.271" style="fill:#b0b0b1;fill-rule:nonzero;"/><path d="M3058.75,1502.05l-5.428,0l-23.115,0l0,88.934l41.998,0l0,-88.934l-13.455,0Z" style="fill:#f16034;fill-rule:nonzero;"/><path d="M3104.22,1396.73l-5.42,0l-13.47,0l0,194.248l42.002,0l0,-194.248l-23.112,0Z" style="fill:#f16034;fill-rule:nonzero;"/><path d="M3157.83,1549.38l-5.42,0l-13.467,0l0,41.596l41.995,0l0,-41.596l-23.108,0Z" style="fill:#f16034;fill-rule:nonzero;"/><path d="M3212.96,1458.17l-5.413,0l-13.466,0l0,132.811l41.994,0l0,-132.811l-23.115,0Z" style="fill:#f16034;fill-rule:nonzero;"/><path d="M3265.02,1493.86l-5.42,0l-13.46,0l0,97.122l41.995,0l0,-97.122l-23.115,0Z" style="fill:#fdd21b;fill-rule:nonzero;"/><path d="M3318.63,1435.35l-5.42,0l-13.463,0l0,155.635l41.994,0l0,-155.635l-23.111,0Z" style="fill:#fdd21b;fill-rule:nonzero;"/><path d="M3374.25,1396.73l-5.424,0l-13.459,0l0,194.248l41.987,0l0,-194.248l-23.104,0Z" style="fill:#fdd21b;fill-rule:nonzero;"/><path d="M3428.47,1415.56l-5.405,0l-13.455,0l0,175.419l42.014,0l0,-175.419l-23.154,0Z" style="fill:#fdd21b;fill-rule:nonzero;"/><rect x="3030.21" y="1625.96" width="202.901" height="65.708" style="fill:#b0b0b1;fill-rule:nonzero;"/><rect x="3248.7" y="1625.96" width="202.923" height="65.708" style="fill:#b0b0b1;fill-rule:nonzero;"/><path d="M2887.66,1680.66c0.863,0 1.556,0.909 1.556,2.009l0,31.487c0,1.104 -0.693,2.005 -1.556,2.005l-44.72,0c-0.847,0 -1.564,-0.901 -1.564,-2.005l0,-31.487c0,-1.1 0.717,-2.009 1.564,-2.009l44.72,0Z" style="fill:#f26425;fill-rule:nonzero;"/><path d="M2841.37,1672.44l0,21.769l47.84,0l0,-21.769c0,-1.1 -0.693,-1.997 -1.556,-1.997l-44.72,0c-0.847,0 -1.564,0.897 -1.564,1.997Z" style="fill:#fff;fill-rule:nonzero;"/><path d="M2841.37,1182.86l0,495.866l47.84,0l0,-86.116l0,-54.484l0,-330.161l0,-25.105l0,-109.316l-47.84,0l0,109.316Z" style="fill:#fdd21b;fill-rule:nonzero;"/><path d="M2858.87,1182.86l0,495.866l12.834,0l0,-86.116l0,-54.484l0,-330.161l0,-25.105l0,-109.316l-12.834,0l0,109.316Z" style="fill:#151d20;fill-rule:nonzero;"/><path d="M2889.36,1073.84l-24.07,16.963l-24.062,-16.947l24.062,-77.561l24.07,77.545Z" style="fill:#fff;fill-rule:nonzero;"/><path d="M2855.27,1028.63l20.056,0l-10.032,-32.338l-10.024,32.338Z" style="fill:#151d20;fill-rule:nonzero;"/><rect x="2339.32" y="755.034" width="359.781" height="522.458" style="fill:#151d20;fill-rule:nonzero;"/><rect x="2362.69" y="912.93" width="50.919" height="50.926" style="fill:#2dbdbc;fill-rule:nonzero;"/><rect x="2362.69" y="1003.85" width="50.919" height="50.949" style="fill:#fff;fill-rule:nonzero;"/><rect x="2362.69" y="1094.76" width="50.919" height="50.945" style="fill:#fff;fill-rule:nonzero;"/><rect x="2362.69" y="1185.67" width="50.919" height="50.949" style="fill:#fff;fill-rule:nonzero;"/><rect x="2450.08" y="912.93" width="50.919" height="50.926" style="fill:#2dbdbc;fill-rule:nonzero;"/><rect x="2450.08" y="1003.85" width="50.919" height="50.949" style="fill:#fff;fill-rule:nonzero;"/><rect x="2450.08" y="1094.76" width="50.919" height="50.945" style="fill:#fff;fill-rule:nonzero;"/><rect x="2450.08" y="1185.67" width="50.919" height="50.949" style="fill:#fff;fill-rule:nonzero;"/><rect x="2537.44" y="912.93" width="50.942" height="50.926" style="fill:#2dbdbc;fill-rule:nonzero;"/><rect x="2362.69" y="890.34" width="50.919" height="6.977" style="fill:#fff;fill-rule:nonzero;"/><rect x="2450.08" y="890.34" width="50.919" height="6.977" style="fill:#fff;fill-rule:nonzero;"/><rect x="2537.44" y="890.34" width="50.942" height="6.977" style="fill:#fff;fill-rule:nonzero;"/><rect x="2537.44" y="1003.85" width="50.942" height="50.949" style="fill:#fff;fill-rule:nonzero;"/><rect x="2537.44" y="1094.76" width="50.942" height="50.945" style="fill:#fff;fill-rule:nonzero;"/><rect x="2537.44" y="1185.67" width="50.942" height="50.949" style="fill:#fff;fill-rule:nonzero;"/><rect x="2624.83" y="912.93" width="50.938" height="50.926" style="fill:#2dbdbc;fill-rule:nonzero;"/><rect x="2624.83" y="1003.85" width="50.938" height="50.949" style="fill:#2dbdbc;fill-rule:nonzero;"/><rect x="2624.83" y="1094.76" width="50.938" height="141.862" style="fill:#2dbdbc;fill-rule:nonzero;"/><rect x="2357.79" y="775.335" width="322.843" height="94.746" style="fill:#fff;fill-rule:nonzero;"/><path d="M2658,893.828c0,4.777 -3.864,8.637 -8.632,8.637c-4.761,0 -8.641,-3.86 -8.641,-8.637c0,-4.764 3.88,-8.628 8.641,-8.628c4.768,0 8.632,3.864 8.632,8.628Z" style="fill:#fff;fill-rule:nonzero;"/><rect x="871.3" y="769.984" width="470.75" height="36.455" style="fill:#f26425;fill-rule:nonzero;"/><rect x="871.3" y="806.435" width="470.75" height="657.47" style="fill:#fff;fill-rule:nonzero;"/><rect x="911.838" y="988.214" width="176.347" height="15.51" style="fill:#b0b0b1;fill-rule:nonzero;"/><rect x="911.838" y="1051.69" width="389.682" height="15.502" style="fill:#b0b0b1;fill-rule:nonzero;"/><rect x="911.838" y="1086.95" width="389.682" height="15.521" style="fill:#b0b0b1;fill-rule:nonzero;"/><rect x="911.838" y="1122.22" width="389.682" height="15.498" style="fill:#b0b0b1;fill-rule:nonzero;"/><rect x="911.838" y="1157.48" width="389.682" height="15.525" style="fill:#b0b0b1;fill-rule:nonzero;"/><rect x="911.838" y="1192.8" width="389.682" height="15.494" style="fill:#b0b0b1;fill-rule:nonzero;"/><rect x="911.838" y="1228.05" width="389.682" height="15.521" style="fill:#b0b0b1;fill-rule:nonzero;"/><rect x="911.838" y="1263.32" width="389.682" height="15.506" style="fill:#b0b0b1;fill-rule:nonzero;"/><rect x="911.838" y="1298.58" width="389.682" height="15.517" style="fill:#b0b0b1;fill-rule:nonzero;"/><rect x="911.838" y="1333.66" width="389.682" height="15.51" style="fill:#b0b0b1;fill-rule:nonzero;"/><rect x="911.838" y="1368.93" width="389.682" height="15.498" style="fill:#b0b0b1;fill-rule:nonzero;"/><rect x="911.838" y="1404.19" width="389.682" height="15.521" style="fill:#b0b0b1;fill-rule:nonzero;"/><path d="M403.766,1375.47c0,-23.782 19.313,-43.072 43.11,-43.072l358.444,0c23.801,0 43.095,19.29 43.095,43.072l0,591.57c0,23.786 -19.294,43.072 -43.095,43.072l-358.444,0c-23.797,0 -43.11,-19.286 -43.11,-43.072l0,-591.57Z" style="fill:#151d20;fill-rule:nonzero;"/><rect x="445.726" y="1382.32" width="360.724" height="577.904" style="fill:#fff;fill-rule:nonzero;"/><path d="M445.726,1377.63l360.725,0.008l0,27.228l-360.725,-0.004l0,-27.232Z" style="fill:#fdd21b;fill-rule:nonzero;"/><path d="M626.079,2003.23c-9.63,0 -17.427,-7.82 -17.427,-17.457c0,-9.591 7.797,-17.43 17.427,-17.43c9.637,0 17.461,7.839 17.461,17.43c0,9.637 -7.824,17.457 -17.461,17.457Z" style="fill:#fff;fill-rule:nonzero;"/><rect x="597.317" y="1870.22" width="57.543" height="56.293" style="fill:#b0b0b1;fill-rule:nonzero;"/><rect x="664.712" y="1870.22" width="56.266" height="56.293" style="fill:#fdd21b;fill-rule:nonzero;"/><rect x="731.462" y="1870.22" width="56.282" height="56.293" style="fill:#b0b0b1;fill-rule:nonzero;"/><rect x="531.203" y="1870.22" width="56.285" height="56.293" style="fill:#b0b0b1;fill-rule:nonzero;"/><rect x="464.448" y="1870.22" width="56.285" height="56.293" style="fill:#b0b0b1;fill-rule:nonzero;"/><path d="M693.213,1360.88c0,2.105 -1.722,3.837 -3.834,3.837l-126.578,0c-2.112,0 -3.833,-1.732 -3.833,-3.837l0,-11.159c0,-2.116 1.721,-3.837 3.833,-3.837l126.578,0c2.112,0 3.834,1.721 3.834,3.837l0,11.159Z" style="fill:#fff;fill-rule:nonzero;"/><path d="M649.202,2010.12l-25.603,0l0,-7.057c0.812,0.115 1.64,0.176 2.48,0.176c9.637,0 17.461,-7.82 17.461,-17.457c0,-9.591 -7.824,-17.43 -17.461,-17.43c-0.84,0 -1.668,0.061 -2.48,0.176l0,-8.299l21.34,0c-0.035,1.625 -0.054,3.25 -0.054,4.883c0,6.318 0.253,12.685 0.771,19.094c0.709,8.802 1.901,17.446 3.546,25.914Zm157.249,-267.067l0,-338.177l0,-27.228l-182.852,-0.004l0,-12.923l65.78,0c2.112,0 3.834,-1.732 3.834,-3.837l0,-11.159c0,-2.116 -1.722,-3.837 -3.834,-3.837l-65.78,0l0,-13.482l181.721,0c23.801,0 43.095,19.29 43.095,43.072l0,358.164c-14.487,1.874 -28.502,5.052 -41.964,9.411Z" style="fill:#454a4d;fill-rule:nonzero;"/><path d="M644.939,1960.22l-21.34,0l0,-33.711l24.502,0c-1.851,11.021 -2.924,22.276 -3.162,33.711Zm9.921,-62.534l0,-27.47l-31.261,0l0,-465.349l182.852,0l0,338.177c-63.707,20.619 -114.707,67.582 -141.341,127.172l-0.398,0l0,0.905c-3.803,8.605 -7.1,17.48 -9.852,26.565Z" style="fill:#fff;fill-rule:nonzero;"/><path d="M806.451,1404.87l-182.852,0l0,-27.232l182.852,0.004l0,27.228Z" style="fill:#fddb4a;fill-rule:nonzero;"/><path d="M626.079,2003.23c-0.84,0 -1.668,-0.061 -2.48,-0.176l0,-34.535c0.812,-0.115 1.64,-0.176 2.48,-0.176c9.637,0 17.461,7.839 17.461,17.43c0,9.637 -7.824,17.457 -17.461,17.457Z" style="fill:#fff;fill-rule:nonzero;"/><path d="M648.101,1926.51l-24.502,0l0,-56.293l31.261,0l0,27.47c-2.845,9.388 -5.11,19.013 -6.759,28.823Z" style="fill:#c0c0c0;fill-rule:nonzero;"/><path d="M664.712,1871.12l0,-0.905l0.398,0c-0.134,0.303 -0.264,0.602 -0.398,0.905Z" style="fill:#fddb4a;fill-rule:nonzero;"/><path d="M689.379,1364.72l-65.78,0l0,-18.833l65.78,0c2.112,0 3.834,1.721 3.834,3.837l0,11.159c0,2.105 -1.722,3.837 -3.834,3.837Z" style="fill:#fff;fill-rule:nonzero;"/><path d="M1967.07,2552.96c0,99.265 -80.459,179.716 -179.72,179.716c-99.265,0 -179.72,-80.451 -179.72,-179.716c0,-99.261 80.455,-179.716 179.72,-179.716c99.261,0 179.72,80.455 179.72,179.716Z" style="fill:#fff;fill-rule:nonzero;"/><path d="M1936.12,2407.34c-7.785,-7.79 -20.378,-7.79 -28.171,0l-43.459,43.455c-49.891,-36.363 -120.188,-32.032 -165.211,12.98c-49.807,49.811 -49.807,130.591 0,180.395c49.826,49.814 130.584,49.814 180.407,0c45.019,-45.016 49.331,-115.312 12.968,-165.204l43.466,-43.466c7.775,-7.774 7.775,-20.386 0,-28.16Z" style="fill:#dbdada;fill-rule:nonzero;"/><path d="M1853.5,2489.95c-35.355,-35.355 -92.676,-35.355 -128.039,0c-35.359,35.367 -35.37,92.683 0,128.042c35.363,35.352 92.684,35.352 128.039,0c35.355,-35.359 35.355,-92.675 0,-128.042Z" style="fill:#151d20;fill-rule:nonzero;"/><path d="M1863.21,2658.09c5.777,-4.102 11.293,-8.741 16.472,-13.919c24.882,-24.883 37.329,-57.49 37.344,-90.104c-0.015,32.614 -12.462,65.221 -37.344,90.104c-5.179,5.182 -10.692,9.821 -16.472,13.919Zm1.276,-207.294c-0.832,-0.606 -1.675,-1.204 -2.522,-1.79c0.847,0.586 1.686,1.18 2.522,1.79Z" style="fill:#fff;fill-rule:nonzero;"/><path d="M1789.45,2681.5c-1.211,0 -2.422,-0.019 -3.634,-0.054l0,-37.007c1.219,0.046 2.438,0.073 3.661,0.073c23.169,0 46.338,-8.84 64.014,-26.516c35.355,-35.359 35.355,-92.675 0,-128.042c-17.676,-17.676 -40.845,-26.515 -64.014,-26.515c-1.223,0 -2.442,0.023 -3.661,0.072l0,-36.919c1.208,-0.031 2.412,-0.05 3.619,-0.05c25.385,0 50.769,7.414 72.524,22.468c0.847,0.586 1.69,1.184 2.522,1.79l43.459,-43.455c3.895,-3.895 8.993,-5.842 14.088,-5.842c5.098,0 10.193,1.947 14.083,5.842c3.887,3.887 5.831,8.981 5.831,14.08c0,5.098 -1.944,10.193 -5.831,14.08l-43.466,43.466c16.261,22.315 24.388,48.711 24.376,75.1c-0.015,32.614 -12.462,65.221 -37.344,90.104c-5.179,5.178 -10.695,9.817 -16.472,13.919c-22.023,15.624 -47.891,23.406 -73.755,23.406Z" style="fill:#e2e1e1;fill-rule:nonzero;"/><path d="M1789.48,2644.51c-1.223,0 -2.442,-0.027 -3.661,-0.073l0,-180.928c1.219,-0.049 2.438,-0.072 3.661,-0.072c23.169,0 46.338,8.839 64.014,26.515c35.355,35.367 35.355,92.683 0,128.042c-17.676,17.676 -40.845,26.516 -64.014,26.516Z" style="fill:#454a4d;fill-rule:nonzero;"/><path d="M3093.39,1943.76c-9.285,-114.916 -109.957,-200.558 -224.866,-191.289c-14.272,1.15 -28.076,3.738 -41.309,7.579c10.73,-31.127 16.645,-64.512 16.645,-99.296c0,-168.124 -136.3,-304.431 -304.431,-304.431c-39.733,0 -77.665,7.701 -112.472,21.547c-39.763,-269.628 -282.577,-465.778 -558.181,-443.545c-242.545,19.574 -432.915,202 -472.399,431.228c-5.416,0.215 -10.856,0.46 -16.318,0.901c-212.277,17.128 -372.374,197.005 -367.778,407.204c-42.941,-29.962 -96.172,-45.759 -152.45,-41.216c-128.663,10.381 -224.547,123.105 -214.17,251.764c3.649,45.161 19.96,86.24 45.092,120.138c0,0 63.181,69.588 132.681,69.588c388.071,0 1649.83,0 2052.34,0c75.268,0 141.639,-53.825 160.059,-68.829c39.92,-41.58 62.564,-99.368 57.562,-161.343Z" style="fill:#2dbdbc;fill-rule:nonzero;"/><path d="M1865.77,2173.93c-421.437,0 -844.941,0 -1042.34,0c-69.5,0 -132.681,-69.588 -132.681,-69.588c-25.132,-33.898 -41.443,-74.977 -45.092,-120.138c-0.518,-6.409 -0.771,-12.776 -0.771,-19.094c0.023,-120.54 92.687,-222.807 214.941,-232.67c6.398,-0.518 12.75,-0.771 19.056,-0.771c49.186,0 95.332,15.43 133.394,41.987c-0.065,-2.871 -0.096,-5.742 -0.096,-8.602c-0.111,-206.485 158.499,-381.708 367.874,-398.602c5.462,-0.441 10.902,-0.686 16.318,-0.901c39.473,-229.159 229.742,-411.543 472.18,-431.208c-0.927,0.076 -1.851,0.187 -2.783,0.287l0,1239.3Z" style="fill:#00f7f7;fill-rule:nonzero;"/><path d="M1868.55,934.34c0.073,-0.008 0.146,-0.012 0.219,-0.02c-0.077,0.008 -0.146,0.012 -0.219,0.02Z" style="fill:#85d1d3;fill-rule:nonzero;"/><path d="M2875.76,2173.93c-197.76,0 -602.913,0 -1010,0l0,-1239.3c0.932,-0.1 1.856,-0.211 2.783,-0.287c0.073,-0.008 0.142,-0.012 0.219,-0.02c14.279,-1.15 28.459,-1.717 42.539,-1.717c257.672,0 477.941,189.603 515.642,445.262c34.807,-13.846 72.739,-21.547 112.472,-21.547c168.131,0 304.431,136.307 304.431,304.431c0,6.037 -0.177,12.029 -0.529,17.974c-0.307,5.199 -0.744,10.362 -1.307,15.483c-0.203,1.814 -0.418,3.619 -0.648,5.421c-2.687,20.873 -7.494,41.082 -14.161,60.418c13.233,-3.841 27.037,-6.429 41.309,-7.579c5.715,-0.46 11.377,-0.686 17.016,-0.686c107.668,0 199.029,82.774 207.85,191.975c0.46,5.689 0.686,11.343 0.686,16.951c0.011,55.496 -21.992,106.63 -58.248,144.392c-18.42,15.004 -84.791,68.829 -160.059,68.829Z" style="fill:#72fafa;fill-rule:nonzero;"/><path d="M3093.39,1943.76l1.909,-0.153c-8.905,-110.209 -101.09,-193.739 -209.759,-193.739c-5.685,0 -11.412,0.226 -17.173,0.694c-14.398,1.158 -28.333,3.772 -41.685,7.644l0.533,1.844l1.813,0.625c10.795,-31.323 16.749,-64.922 16.749,-99.921c0,-169.186 -137.159,-306.344 -306.348,-306.348c-39.983,0 -78.155,7.751 -113.177,21.681l0.705,1.783l1.898,-0.28c-37.847,-256.606 -258.91,-446.895 -517.54,-446.899c-14.126,0 -28.367,0.568 -42.696,1.725c-243.435,19.646 -434.502,202.736 -474.131,432.811l1.889,0.326l-0.076,-1.916c-5.424,0.218 -10.887,0.46 -16.399,0.908c-210.303,16.971 -369.634,192.911 -369.634,400.297c0,2.947 0.031,5.899 0.096,8.858l1.917,-0.038l1.096,-1.576c-38.372,-26.772 -84.901,-42.331 -134.49,-42.331c-6.356,0 -12.765,0.257 -19.209,0.778c-123.274,9.947 -216.704,113.069 -216.704,234.625c0,6.352 0.256,12.758 0.774,19.202c3.68,45.529 20.129,86.952 45.464,121.123l0.057,0.076l0.065,0.073c0.062,0.065 15.932,17.546 40.588,35.068c24.656,17.503 58.11,35.129 93.512,35.148c388.071,0 1649.83,0 2052.34,0c76.181,-0.053 142.77,-54.234 161.27,-69.257l0.092,-0.077l0.081,-0.084c36.574,-38.092 58.78,-89.682 58.78,-145.672c0,-5.674 -0.229,-11.397 -0.693,-17.151l-1.909,0.153l-1.909,0.154c0.452,5.654 0.678,11.27 0.678,16.844c0,54.966 -21.797,105.605 -57.711,143.019l1.38,1.326l-1.208,-1.487c-18.339,14.985 -84.495,68.453 -158.851,68.399c-402.505,0 -1664.26,0 -2052.34,0c-34.094,0.019 -66.981,-17.151 -91.292,-34.439c-12.156,-8.637 -22.165,-17.285 -29.126,-23.763c-3.481,-3.239 -6.199,-5.938 -8.043,-7.82c-0.923,-0.943 -1.629,-1.683 -2.1,-2.182c-0.472,-0.502 -0.702,-0.755 -0.702,-0.755l-1.418,1.288l1.541,-1.142c-24.929,-33.623 -41.102,-74.356 -44.724,-119.149c-0.51,-6.344 -0.763,-12.643 -0.763,-18.895c0,-119.566 91.913,-221.024 213.178,-230.807c6.344,-0.51 12.65,-0.763 18.902,-0.763c48.784,0 94.543,15.303 132.298,41.646l3.093,2.158l-0.08,-3.772c-0.066,-2.933 -0.096,-5.858 -0.096,-8.778c-0.004,-205.396 157.812,-379.673 366.11,-396.479c5.417,-0.437 10.833,-0.678 16.242,-0.897l1.549,-0.061l0.264,-1.53c39.338,-228.377 229.01,-410.144 470.662,-429.637c14.226,-1.15 28.363,-1.713 42.386,-1.713c256.725,0 476.185,188.905 513.749,443.625l0.352,2.396l2.251,-0.894c34.592,-13.761 72.278,-21.413 111.762,-21.413c83.54,0.004 159.157,33.86 213.91,88.609c54.748,54.752 88.604,130.365 88.604,213.906c0,34.565 -5.876,67.74 -16.537,98.671l-1.208,3.492l3.554,-1.027c13.106,-3.803 26.784,-6.367 40.925,-7.506c5.658,-0.46 11.282,-0.682 16.863,-0.682c106.679,0 197.2,82.011 205.941,190.212l1.909,-0.154Z" style="fill:#fff;fill-rule:nonzero;"/><path d="M2024.47,2775.69c0,0 -8.978,16.71 54.744,30.621l1334.12,0c0,0 44.621,-2.848 56.389,-23.897l0.077,-11.523l-1445.33,4.799Z" style="fill:#b0b0b1;fill-rule:nonzero;"/><path d="M2024.77,2741.96l1445.49,0l0,37.092c0,0 2.185,4.987 -14.835,3.737l-1417.03,0c0,0 -13.313,3.741 -14.555,-4.941l0.935,-35.888Z" style="fill:#fff;fill-rule:nonzero;"/><path d="M3403.12,2763.65c0,1.434 -0.95,2.591 -2.142,2.591l-49.183,0c-1.18,0 -2.139,-1.157 -2.139,-2.591c0,-1.464 0.959,-2.641 2.139,-2.641l49.183,0c1.192,0 2.142,1.177 2.142,2.641Z" style="fill:#b0b0b1;fill-rule:nonzero;"/><path d="M2649.33,2742.25c0,0 -5.577,18.581 12.991,20.444l167.703,0c0,0 17.833,2.311 15.46,-19.811l-196.154,-0.633Z" style="fill:#b0b0b1;fill-rule:nonzero;"/><path d="M1369.71,1598.7c0,0 0.982,-1.43 2.897,-4.177c1.915,-2.665 4.75,-7.037 8.45,-11.781c3.701,-4.963 8.272,-11.02 13.627,-17.495c2.694,-3.285 5.572,-6.819 8.655,-10.594c3.076,-3.492 6.343,-7.232 9.79,-11.167c13.818,-15.976 30.602,-33.259 49.843,-51.161c19.242,-17.826 40.954,-35.965 64.643,-53.158c23.684,-17.212 49.343,-33.472 76.485,-47.9c27.136,-14.718 55.755,-27.149 85.362,-37.43c59.213,-20.668 122.374,-31.279 185.535,-31.433c31.577,-0.059 63.161,2.387 94.244,7.575c31.09,5.051 61.685,12.992 91.291,23.137c29.607,10.186 58.226,22.7 85.362,37.341c27.142,14.435 52.802,30.718 76.485,47.965c23.689,17.229 45.401,35.439 64.643,53.353c19.242,17.974 36.025,35.345 49.837,51.398c3.453,3.958 6.721,7.71 9.797,11.238c3.076,3.645 5.961,7.35 8.654,10.653c5.362,6.487 9.926,12.579 13.627,17.577c3.7,4.774 6.535,9.182 8.45,11.87c1.915,2.759 2.897,4.189 2.897,4.189c0,0 -0.982,1.424 -2.897,4.189c-1.915,2.689 -4.75,7.079 -8.45,11.865c-3.701,4.998 -8.265,11.078 -13.627,17.589c-2.693,3.285 -5.578,7.007 -8.654,10.641c-3.076,3.545 -6.344,7.279 -9.797,11.238c-13.812,16.053 -30.595,33.424 -49.837,51.403c-19.242,17.909 -40.954,36.107 -64.643,53.348c-23.683,17.252 -49.343,33.548 -76.485,47.97c-27.136,14.635 -55.755,27.144 -85.362,37.341c-29.606,10.133 -60.201,18.074 -91.291,23.126c-31.083,5.194 -62.667,7.628 -94.244,7.586c-63.161,-0.153 -126.322,-10.782 -185.535,-31.438c-29.607,-10.281 -58.226,-22.706 -85.362,-37.424c-27.142,-14.446 -52.801,-30.706 -76.485,-47.9c-23.689,-17.194 -45.401,-35.338 -64.643,-53.176c-19.241,-17.897 -36.025,-35.161 -49.843,-51.132c-3.447,-3.946 -6.714,-7.675 -9.79,-11.196c-3.083,-3.764 -5.961,-7.297 -8.655,-10.594c-5.355,-6.452 -9.926,-12.526 -13.627,-17.471c-3.7,-4.768 -6.535,-9.141 -8.45,-11.805c-1.915,-2.748 -2.897,-4.16 -2.897,-4.16Z" style="fill:#f7f5f5;fill-rule:nonzero;"/><path d="M1875,1831.27c-133.37,0 -241.488,-103.421 -241.488,-230.996c0,-127.569 108.118,-230.996 241.488,-230.996c133.376,0 241.494,103.427 241.494,230.996c0,127.575 -108.118,230.996 -241.494,230.996Z" style="fill:#54e2c0;fill-rule:nonzero;"/><path d="M1875,1703.77c-59.751,0 -108.198,-46.334 -108.198,-103.492c0,-57.158 48.447,-103.492 108.198,-103.492c59.757,0 108.204,46.334 108.204,103.492c0,57.158 -48.447,103.492 -108.204,103.492Z" style="fill:#454545;fill-rule:nonzero;"/><path d="M1925.35,1463.63c46.952,1.205 83.082,35.769 84.342,80.667c0.512,17.873 29.545,17.921 29.038,0c-1.698,-60.195 -50.429,-106.824 -113.38,-108.443c-18.735,-0.484 -18.68,27.291 0,27.776Z" style="fill:#f7f5f5;fill-rule:nonzero;"/><g><clipPath id="_clip1"><path d="M2844.62,2743.28l0,-0.437l-0.034,0l0.034,0.437Z"/></clipPath><g clip-path="url(#_clip1)"><path d="M2844.59,2743.28l0.034,0l-0.034,0Z" style="fill:#606968;fill-rule:nonzero;"/><path d="M2844.59,2743.28l0.034,0l-0.034,0Z" style="fill:#606968;fill-rule:nonzero;"/><rect x="2844.59" y="2743.27" width="0.034" height="0.004" style="fill:#606968;fill-rule:nonzero;"/><path d="M2844.59,2743.27l0.034,0l-0.034,0Z" style="fill:#606968;fill-rule:nonzero;"/><rect x="2844.59" y="2743.27" width="0.034" height="0.004" style="fill:#606968;fill-rule:nonzero;"/><path d="M2844.59,2743.27l0.034,0l-0.034,0Z" style="fill:#606968;fill-rule:nonzero;"/><rect x="2844.59" y="2743.26" width="0.034" height="0.004" style="fill:#606968;fill-rule:nonzero;"/><path d="M2844.59,2743.26l0.034,0l-0.034,0Z" style="fill:#606968;fill-rule:nonzero;"/><rect x="2844.59" y="2743.26" width="0.034" height="0.004" style="fill:#606968;fill-rule:nonzero;"/><path d="M2844.59,2743.26l0.034,0l-0.034,0Z" style="fill:#606968;fill-rule:nonzero;"/><path d="M2844.59,2743.26l0.034,0l-0.034,0Z" style="fill:#606968;fill-rule:nonzero;"/><rect x="2844.59" y="2743.26" width="0.034" height="0.004" style="fill:#606968;fill-rule:nonzero;"/><path d="M2844.59,2743.26l0.034,0l-0.034,0Z" style="fill:#606968;fill-rule:nonzero;"/><rect x="2844.59" y="2743.25" width="0.034" height="0.004" style="fill:#606968;fill-rule:nonzero;"/><path d="M2844.59,2743.25l0.034,0l-0.034,0Z" style="fill:#606968;fill-rule:nonzero;"/><rect x="2844.59" y="2743.25" width="0.034" height="0.004" style="fill:#606968;fill-rule:nonzero;"/><path d="M2844.59,2743.25l0.034,0l-0.034,0Z" style="fill:#616969;fill-rule:nonzero;"/><rect x="2844.59" y="2743.24" width="0.034" height="0.004" style="fill:#616969;fill-rule:nonzero;"/><path d="M2844.59,2743.24l0.034,0l-0.034,0Z" style="fill:#616969;fill-rule:nonzero;"/><path d="M2844.59,2743.24l0.034,0l-0.034,0Z" style="fill:#616969;fill-rule:nonzero;"/><path d="M2844.59,2743.24l0,-0.004l0.034,0l-0.034,0.004Z" style="fill:#616969;fill-rule:nonzero;"/><path d="M2844.59,2743.24l0.034,0l-0.034,0Z" style="fill:#616969;fill-rule:nonzero;"/><rect x="2844.59" y="2743.24" width="0.034" height="0.004" style="fill:#616969;fill-rule:nonzero;"/><path d="M2844.59,2743.24l0.034,0l-0.034,0Z" style="fill:#616969;fill-rule:nonzero;"/><rect x="2844.59" y="2743.23" width="0.034" height="0.004" style="fill:#616969;fill-rule:nonzero;"/><path d="M2844.59,2743.23l0.034,0l-0.034,0Z" style="fill:#616969;fill-rule:nonzero;"/><rect x="2844.59" y="2743.23" width="0.034" height="0.004" style="fill:#616969;fill-rule:nonzero;"/><path d="M2844.59,2743.23l0.034,0l-0.034,0Z" style="fill:#616969;fill-rule:nonzero;"/><path d="M2844.59,2743.23l0.034,0l-0.034,0Z" style="fill:#616969;fill-rule:nonzero;"/><rect x="2844.59" y="2743.22" width="0.034" height="0.004" style="fill:#616969;fill-rule:nonzero;"/><path d="M2844.59,2743.22l0.034,0l-0.034,0Z" style="fill:#616969;fill-rule:nonzero;"/><rect x="2844.59" y="2743.22" width="0.034" height="0.004" style="fill:#616969;fill-rule:nonzero;"/><path d="M2844.59,2743.22l0.034,0l-0.034,0Z" style="fill:#626a6a;fill-rule:nonzero;"/><rect x="2844.59" y="2743.22" width="0.034" height="0.004" style="fill:#626a6a;fill-rule:nonzero;"/><path d="M2844.59,2743.22l0.034,0l-0.034,0Z" style="fill:#626a6a;fill-rule:nonzero;"/><rect x="2844.59" y="2743.21" width="0.034" height="0.004" style="fill:#626a6a;fill-rule:nonzero;"/><path d="M2844.59,2743.21l0.034,0l-0.034,0Z" style="fill:#626a6a;fill-rule:nonzero;"/><path d="M2844.59,2743.21l0.034,-0.003l0,0.003l-0.034,0Z" style="fill:#626a6a;fill-rule:nonzero;"/><path d="M2844.59,2743.21l0,-0.003l0.034,0l-0.034,0.003Z" style="fill:#636a6a;fill-rule:nonzero;"/><path d="M2844.59,2743.21l0.034,0l-0.034,0Z" style="fill:#636a6a;fill-rule:nonzero;"/><rect x="2844.59" y="2743.21" width="0.034" height="0.004" style="fill:#636a6a;fill-rule:nonzero;"/><path d="M2844.59,2743.21l0.034,0l-0.034,0Z" style="fill:#636a6a;fill-rule:nonzero;"/><rect x="2844.59" y="2743.2" width="0.034" height="0.004" style="fill:#636a6a;fill-rule:nonzero;"/><path d="M2844.59,2743.2l0.034,0l-0.034,0Z" style="fill:#636a6a;fill-rule:nonzero;"/><rect x="2844.59" y="2743.2" width="0.034" height="0.004" style="fill:#636a6a;fill-rule:nonzero;"/><path d="M2844.59,2743.2l0.034,0l-0.034,0Z" style="fill:#636a6a;fill-rule:nonzero;"/><path d="M2844.59,2743.2l0.034,0l-0.034,0Z" style="fill:#636a6a;fill-rule:nonzero;"/><path d="M2844.59,2743.2l0,-0.004l0.034,0l-0.034,0.004Z" style="fill:#636a6a;fill-rule:nonzero;"/><path d="M2844.59,2743.19l0.034,0l-0.034,0Z" style="fill:#636a6a;fill-rule:nonzero;"/><rect x="2844.59" y="2743.19" width="0.034" height="0.004" style="fill:#636a6a;fill-rule:nonzero;"/><path d="M2844.59,2743.19l0.034,0l-0.034,0Z" style="fill:#636a6a;fill-rule:nonzero;"/><rect x="2844.59" y="2743.19" width="0.034" height="0.004" style="fill:#636a6a;fill-rule:nonzero;"/><path d="M2844.59,2743.19l0.034,0l-0.034,0Z" style="fill:#636a6a;fill-rule:nonzero;"/><rect x="2844.59" y="2743.18" width="0.034" height="0.004" style="fill:#636a6a;fill-rule:nonzero;"/><path d="M2844.59,2743.18l0.034,0l-0.034,0Z" style="fill:#646a6a;fill-rule:nonzero;"/><rect x="2844.59" y="2743.18" width="0.034" height="0.004" style="fill:#646a6a;fill-rule:nonzero;"/><path d="M2844.59,2743.18l0.034,0l-0.034,0Z" style="fill:#646a6a;fill-rule:nonzero;"/><path d="M2844.59,2743.18l0.034,0l-0.034,0Z" style="fill:#646a6a;fill-rule:nonzero;"/><rect x="2844.59" y="2743.18" width="0.034" height="0.004" style="fill:#646a6a;fill-rule:nonzero;"/><path d="M2844.59,2743.18l0.034,0l-0.034,0Z" style="fill:#646a6a;fill-rule:nonzero;"/><rect x="2844.59" y="2743.17" width="0.034" height="0.004" style="fill:#646a6a;fill-rule:nonzero;"/><path d="M2844.59,2743.17l0.034,0l-0.034,0Z" style="fill:#646a6a;fill-rule:nonzero;"/><rect x="2844.59" y="2743.17" width="0.034" height="0.004" style="fill:#646a6a;fill-rule:nonzero;"/><path d="M2844.59,2743.17l0.034,0l-0.034,0Z" style="fill:#646a6a;fill-rule:nonzero;"/><rect x="2844.59" y="2743.16" width="0.034" height="0.004" style="fill:#646a6b;fill-rule:nonzero;"/><path d="M2844.59,2743.16l0.034,0l-0.034,0Z" style="fill:#646b6b;fill-rule:nonzero;"/><path d="M2844.59,2743.16l0.034,0l-0.034,0Z" style="fill:#646b6b;fill-rule:nonzero;"/><rect x="2844.59" y="2743.16" width="0.034" height="0.004" style="fill:#646b6b;fill-rule:nonzero;"/><path d="M2844.59,2743.16l0.034,0l-0.034,0Z" style="fill:#646b6b;fill-rule:nonzero;"/><rect x="2844.59" y="2743.16" width="0.034" height="0.004" style="fill:#646b6b;fill-rule:nonzero;"/><path d="M2844.59,2743.16l0.034,0l-0.034,0Z" style="fill:#646b6b;fill-rule:nonzero;"/><rect x="2844.59" y="2743.15" width="0.034" height="0.004" style="fill:#656b6b;fill-rule:nonzero;"/><path d="M2844.59,2743.15l0.034,0l-0.034,0Z" style="fill:#656b6b;fill-rule:nonzero;"/><rect x="2844.59" y="2743.15" width="0.034" height="0.004" style="fill:#656b6b;fill-rule:nonzero;"/><path d="M2844.59,2743.15l0.034,0l-0.034,0Z" style="fill:#656b6b;fill-rule:nonzero;"/><path d="M2844.59,2743.15l0.034,0l-0.034,0Z" style="fill:#656b6b;fill-rule:nonzero;"/><rect x="2844.59" y="2743.14" width="0.034" height="0.004" style="fill:#656b6b;fill-rule:nonzero;"/><path d="M2844.59,2743.14l0.034,0l-0.034,0Z" style="fill:#656b6b;fill-rule:nonzero;"/><rect x="2844.59" y="2743.14" width="0.034" height="0.004" style="fill:#656b6b;fill-rule:nonzero;"/><path d="M2844.59,2743.14l0.034,0l-0.034,0Z" style="fill:#656b6b;fill-rule:nonzero;"/><rect x="2844.59" y="2743.14" width="0.034" height="0.004" style="fill:#656b6b;fill-rule:nonzero;"/><path d="M2844.59,2743.14l0.034,0l-0.034,0Z" style="fill:#656b6b;fill-rule:nonzero;"/><rect x="2844.59" y="2743.13" width="0.034" height="0.004" style="fill:#656b6c;fill-rule:nonzero;"/><path d="M2844.59,2743.13l0.034,0l-0.034,0Z" style="fill:#656b6c;fill-rule:nonzero;"/><path d="M2844.59,2743.13l0.034,0l-0.034,0Z" style="fill:#656b6c;fill-rule:nonzero;"/><rect x="2844.59" y="2743.13" width="0.034" height="0.004" style="fill:#656b6c;fill-rule:nonzero;"/><path d="M2844.59,2743.13l0.034,0l-0.034,0Z" style="fill:#656b6c;fill-rule:nonzero;"/><rect x="2844.59" y="2743.12" width="0.034" height="0.004" style="fill:#666b6c;fill-rule:nonzero;"/><path d="M2844.59,2743.12l0.034,0l-0.034,0Z" style="fill:#666b6c;fill-rule:nonzero;"/><rect x="2844.59" y="2743.12" width="0.034" height="0.004" style="fill:#666b6c;fill-rule:nonzero;"/><path d="M2844.59,2743.12l0.034,0l-0.034,0Z" style="fill:#666b6c;fill-rule:nonzero;"/><rect x="2844.59" y="2743.12" width="0.034" height="0.004" style="fill:#666b6c;fill-rule:nonzero;"/><path d="M2844.59,2743.12l0.034,0l-0.034,0Z" style="fill:#666b6c;fill-rule:nonzero;"/><path d="M2844.59,2743.12l0.034,0l-0.034,0Z" style="fill:#666b6c;fill-rule:nonzero;"/><path d="M2844.59,2743.12l0,-0.004l0.034,0l-0.034,0.004Z" style="fill:#666b6c;fill-rule:nonzero;"/><path d="M2844.59,2743.11l0.034,0l-0.034,0Z" style="fill:#666b6c;fill-rule:nonzero;"/><rect x="2844.59" y="2743.11" width="0.034" height="0.004" style="fill:#666b6c;fill-rule:nonzero;"/><path d="M2844.59,2743.11l0.034,0l-0.034,0Z" style="fill:#666b6c;fill-rule:nonzero;"/><rect x="2844.59" y="2743.11" width="0.034" height="0.004" style="fill:#666c6c;fill-rule:nonzero;"/><path d="M2844.59,2743.11l0.034,0l-0.034,0Z" style="fill:#666c6c;fill-rule:nonzero;"/><rect x="2844.59" y="2743.1" width="0.034" height="0.004" style="fill:#666c6c;fill-rule:nonzero;"/><path d="M2844.59,2743.1l0.034,0l-0.034,0Z" style="fill:#666c6c;fill-rule:nonzero;"/><rect x="2844.59" y="2743.1" width="0.034" height="0.004" style="fill:#676c6c;fill-rule:nonzero;"/><rect x="2844.59" y="2743.1" width="0.034" height="0.004" style="fill:#676c6c;fill-rule:nonzero;"/><path d="M2844.59,2743.1l0.034,0l-0.034,0Z" style="fill:#676c6d;fill-rule:nonzero;"/><rect x="2844.59" y="2743.1" width="0.034" height="0.004" style="fill:#676c6d;fill-rule:nonzero;"/><path d="M2844.59,2743.1l0.034,0l-0.034,0Z" style="fill:#676c6d;fill-rule:nonzero;"/><rect x="2844.59" y="2743.09" width="0.034" height="0.004" style="fill:#676c6d;fill-rule:nonzero;"/><path d="M2844.59,2743.09l0.034,0l-0.034,0Z" style="fill:#676c6d;fill-rule:nonzero;"/><rect x="2844.59" y="2743.09" width="0.034" height="0.004" style="fill:#676c6d;fill-rule:nonzero;"/><path d="M2844.59,2743.09l0.034,0l-0.034,0Z" style="fill:#676c6d;fill-rule:nonzero;"/><rect x="2844.59" y="2743.08" width="0.034" height="0.004" style="fill:#676c6d;fill-rule:nonzero;"/><path d="M2844.59,2743.08l0.034,0l-0.034,0Z" style="fill:#676c6d;fill-rule:nonzero;"/><path d="M2844.59,2743.08l0.034,0l-0.034,0Z" style="fill:#676c6d;fill-rule:nonzero;"/><rect x="2844.59" y="2743.08" width="0.034" height="0.004" style="fill:#676c6d;fill-rule:nonzero;"/><path d="M2844.59,2743.08l0.034,0l-0.034,0Z" style="fill:#676c6d;fill-rule:nonzero;"/><rect x="2844.59" y="2743.08" width="0.034" height="0.004" style="fill:#676c6d;fill-rule:nonzero;"/><path d="M2844.59,2743.08l0.034,0l-0.034,0Z" style="fill:#686c6d;fill-rule:nonzero;"/><rect x="2844.59" y="2743.07" width="0.034" height="0.004" style="fill:#686c6d;fill-rule:nonzero;"/><path d="M2844.59,2743.07l0.034,0l-0.034,0Z" style="fill:#686c6d;fill-rule:nonzero;"/><rect x="2844.59" y="2743.07" width="0.034" height="0.004" style="fill:#686c6d;fill-rule:nonzero;"/><path d="M2844.59,2743.07l0.034,0l-0.034,0Z" style="fill:#686c6d;fill-rule:nonzero;"/><path d="M2844.59,2743.07l0.034,0l-0.034,0Z" style="fill:#686c6d;fill-rule:nonzero;"/><rect x="2844.59" y="2743.06" width="0.034" height="0.004" style="fill:#686d6e;fill-rule:nonzero;"/><path d="M2844.59,2743.06l0.034,0l-0.034,0Z" style="fill:#6a6e70;fill-rule:nonzero;"/><rect x="2844.59" y="2743.06" width="0.034" height="0.004" style="fill:#6b6f71;fill-rule:nonzero;"/><path d="M2844.59,2743.06l0.034,0l-0.034,0Z" style="fill:#6c7172;fill-rule:nonzero;"/><rect x="2844.59" y="2743.06" width="0.034" height="0.004" style="fill:#6d7172;fill-rule:nonzero;"/><path d="M2844.59,2743.06l0.034,0l-0.034,0Z" style="fill:#6e7273;fill-rule:nonzero;"/><rect x="2844.59" y="2743.05" width="0.034" height="0.004" style="fill:#6f7474;fill-rule:nonzero;"/><path d="M2844.59,2743.05l0.034,0l-0.034,0Z" style="fill:#717576;fill-rule:nonzero;"/><path d="M2844.59,2743.05l0.034,0l-0.034,0Z" style="fill:#717576;fill-rule:nonzero;"/><rect x="2844.59" y="2743.05" width="0.034" height="0.004" style="fill:#727677;fill-rule:nonzero;"/><path d="M2844.59,2743.05l0.034,0l-0.034,0Z" style="fill:#737778;fill-rule:nonzero;"/><rect x="2844.59" y="2743.05" width="0.034" height="0.004" style="fill:#747879;fill-rule:nonzero;"/><path d="M2844.59,2743.05l0.034,0l-0.034,0Z" style="fill:#75797a;fill-rule:nonzero;"/><rect x="2844.59" y="2743.04" width="0.034" height="0.004" style="fill:#767a7b;fill-rule:nonzero;"/><path d="M2844.59,2743.04l0.034,0l-0.034,0Z" style="fill:#777b7c;fill-rule:nonzero;"/><rect x="2844.59" y="2743.04" width="0.034" height="0.004" style="fill:#777c7d;fill-rule:nonzero;"/><path d="M2844.59,2743.04l0.034,0l-0.034,0Z" style="fill:#787d7e;fill-rule:nonzero;"/><path d="M2844.59,2743.04l0.034,-0.004l0,0.004l-0.034,0Z" style="fill:#797e7f;fill-rule:nonzero;"/><rect x="2844.59" y="2743.03" width="0.034" height="0.004" style="fill:#7a7f80;fill-rule:nonzero;"/><path d="M2844.59,2743.03l0.034,0l-0.034,0Z" style="fill:#7a7f80;fill-rule:nonzero;"/><rect x="2844.59" y="2743.03" width="0.034" height="0.004" style="fill:#7b8081;fill-rule:nonzero;"/><path d="M2844.59,2743.03l0.034,0l-0.034,0Z" style="fill:#7d8182;fill-rule:nonzero;"/><rect x="2844.59" y="2743.03" width="0.034" height="0.004" style="fill:#7e8283;fill-rule:nonzero;"/><path d="M2844.59,2743.03l0.034,0l-0.034,0Z" style="fill:#7e8283;fill-rule:nonzero;"/><rect x="2844.59" y="2743.02" width="0.034" height="0.004" style="fill:#7f8384;fill-rule:nonzero;"/><path d="M2844.59,2743.02l0.034,0l-0.034,0Z" style="fill:#808485;fill-rule:nonzero;"/><path d="M2844.59,2743.02l0.034,0l-0.034,0Z" style="fill:#808485;fill-rule:nonzero;"/><path d="M2844.59,2743.02l0,-0.004l0.034,0l-0.034,0.004Z" style="fill:#818587;fill-rule:nonzero;"/><path d="M2844.59,2743.02l0.034,0l-0.034,0Z" style="fill:#828687;fill-rule:nonzero;"/><rect x="2844.59" y="2743.01" width="0.034" height="0.004" style="fill:#838788;fill-rule:nonzero;"/><path d="M2844.59,2743.01l0.034,0l-0.034,0Z" style="fill:#838788;fill-rule:nonzero;"/><rect x="2844.59" y="2743.01" width="0.034" height="0.004" style="fill:#85888a;fill-rule:nonzero;"/><path d="M2844.59,2743.01l0.034,0l-0.034,0Z" style="fill:#86898b;fill-rule:nonzero;"/><rect x="2844.59" y="2743.01" width="0.034" height="0.004" style="fill:#878b8c;fill-rule:nonzero;"/><path d="M2844.59,2743.01l0.034,0l-0.034,0Z" style="fill:#878b8c;fill-rule:nonzero;"/><rect x="2844.59" y="2743" width="0.034" height="0.004" style="fill:#878b8c;fill-rule:nonzero;"/><rect x="2844.59" y="2743" width="0.034" height="0.004" style="fill:#888c8e;fill-rule:nonzero;"/><path d="M2844.59,2743l0.034,0l-0.034,0Z" style="fill:#8a8e8f;fill-rule:nonzero;"/><rect x="2844.59" y="2743" width="0.034" height="0.004" style="fill:#8a8e8f;fill-rule:nonzero;"/><path d="M2844.59,2743l0.034,0l-0.034,0Z" style="fill:#8a8e8f;fill-rule:nonzero;"/><rect x="2844.59" y="2742.99" width="0.034" height="0.004" style="fill:#8c8f90;fill-rule:nonzero;"/><path d="M2844.59,2742.99l0.034,0l-0.034,0Z" style="fill:#8c8f90;fill-rule:nonzero;"/><rect x="2844.59" y="2742.99" width="0.034" height="0.004" style="fill:#8d9091;fill-rule:nonzero;"/><path d="M2844.59,2742.99l0.034,0l-0.034,0Z" style="fill:#8e9192;fill-rule:nonzero;"/><path d="M2844.59,2742.99l0.034,0l-0.034,0Z" style="fill:#8f9293;fill-rule:nonzero;"/><path d="M2844.59,2742.99l0,-0.004l0.034,0l-0.034,0.004Z" style="fill:#8f9293;fill-rule:nonzero;"/><path d="M2844.59,2742.99l0.034,0l-0.034,0Z" style="fill:#8f9294;fill-rule:nonzero;"/><rect x="2844.59" y="2742.98" width="0.034" height="0.004" style="fill:#909394;fill-rule:nonzero;"/><path d="M2844.59,2742.98l0.034,0l-0.034,0Z" style="fill:#919495;fill-rule:nonzero;"/><rect x="2844.59" y="2742.98" width="0.034" height="0.004" style="fill:#919495;fill-rule:nonzero;"/><path d="M2844.59,2742.98l0.034,0l-0.034,0Z" style="fill:#919596;fill-rule:nonzero;"/><rect x="2844.59" y="2742.98" width="0.034" height="0.004" style="fill:#929596;fill-rule:nonzero;"/><path d="M2844.59,2742.98l0.034,0l-0.034,0Z" style="fill:#939697;fill-rule:nonzero;"/><rect x="2844.59" y="2742.97" width="0.034" height="0.004" style="fill:#939697;fill-rule:nonzero;"/><path d="M2844.59,2742.97l0.034,0l-0.034,0Z" style="fill:#939697;fill-rule:nonzero;"/><path d="M2844.59,2742.97l0.034,0l-0.034,0Z" style="fill:#949798;fill-rule:nonzero;"/><rect x="2844.59" y="2742.97" width="0.034" height="0.004" style="fill:#949798;fill-rule:nonzero;"/><path d="M2844.59,2742.97l0.034,0l-0.034,0Z" style="fill:#949798;fill-rule:nonzero;"/><rect x="2844.59" y="2742.96" width="0.034" height="0.004" style="fill:#95989a;fill-rule:nonzero;"/><path d="M2844.59,2742.96l0.034,0l-0.034,0Z" style="fill:#96999a;fill-rule:nonzero;"/><rect x="2844.59" y="2742.96" width="0.034" height="0.004" style="fill:#96999a;fill-rule:nonzero;"/><path d="M2844.59,2742.96l0.034,0l-0.034,0Z" style="fill:#96999a;fill-rule:nonzero;"/><rect x="2844.59" y="2742.96" width="0.034" height="0.004" style="fill:#97999b;fill-rule:nonzero;"/><path d="M2844.59,2742.96l0.034,0l-0.034,0Z" style="fill:#979a9b;fill-rule:nonzero;"/><path d="M2844.59,2742.96l0.034,0l-0.034,0Z" style="fill:#979a9b;fill-rule:nonzero;"/><rect x="2844.59" y="2742.95" width="0.034" height="0.004" style="fill:#979a9b;fill-rule:nonzero;"/><path d="M2844.59,2742.95l0.034,0l-0.034,0Z" style="fill:#989b9c;fill-rule:nonzero;"/><rect x="2844.59" y="2742.95" width="0.034" height="0.004" style="fill:#989b9d;fill-rule:nonzero;"/><path d="M2844.59,2742.95l0.034,0l-0.034,0Z" style="fill:#989b9d;fill-rule:nonzero;"/><rect x="2844.59" y="2742.95" width="0.034" height="0.004" style="fill:#999c9d;fill-rule:nonzero;"/><path d="M2844.59,2742.95l0.034,0l-0.034,0Z" style="fill:#999c9d;fill-rule:nonzero;"/><rect x="2844.59" y="2742.94" width="0.034" height="0.004" style="fill:#999c9d;fill-rule:nonzero;"/><path d="M2844.59,2742.94l0.034,0l-0.034,0Z" style="fill:#999c9d;fill-rule:nonzero;"/><path d="M2844.59,2742.94l0.034,0l-0.034,0Z" style="fill:#9a9c9e;fill-rule:nonzero;"/><path d="M2844.59,2742.94l0,-0.004l0.034,0l-0.034,0.004Z" style="fill:#9a9c9e;fill-rule:nonzero;"/><path d="M2844.59,2742.94l0.034,0l-0.034,0Z" style="fill:#9a9c9e;fill-rule:nonzero;"/><rect x="2844.59" y="2742.93" width="0.034" height="0.004" style="fill:#999d9e;fill-rule:nonzero;"/><path d="M2844.59,2742.93l0.034,0l-0.034,0Z" style="fill:#999d9e;fill-rule:nonzero;"/><rect x="2844.59" y="2742.93" width="0.034" height="0.004" style="fill:#9a9d9f;fill-rule:nonzero;"/><path d="M2844.59,2742.93l0.034,0l-0.034,0Z" style="fill:#9a9d9f;fill-rule:nonzero;"/><rect x="2844.59" y="2742.93" width="0.034" height="0.004" style="fill:#9a9d9f;fill-rule:nonzero;"/><path d="M2844.59,2742.93l0.034,0l-0.034,0Z" style="fill:#9a9d9f;fill-rule:nonzero;"/><path d="M2844.59,2742.93l0.034,0l-0.034,0Z" style="fill:#9a9d9f;fill-rule:nonzero;"/><rect x="2844.59" y="2742.92" width="0.034" height="0.004" style="fill:#9a9d9f;fill-rule:nonzero;"/><path d="M2844.59,2742.92l0.034,0l-0.034,0Z" style="fill:#9a9d9f;fill-rule:nonzero;"/><rect x="2844.59" y="2742.92" width="0.034" height="0.004" style="fill:#9a9d9f;fill-rule:nonzero;"/><path d="M2844.59,2742.92l0.034,0l-0.034,0Z" style="fill:#9a9d9f;fill-rule:nonzero;"/><rect x="2844.59" y="2742.91" width="0.034" height="0.004" style="fill:#9a9d9f;fill-rule:nonzero;"/><path d="M2844.59,2742.91l0.034,0l-0.034,0Z" style="fill:#9a9d9f;fill-rule:nonzero;"/><rect x="2844.59" y="2742.91" width="0.034" height="0.004" style="fill:#9a9d9f;fill-rule:nonzero;"/><path d="M2844.59,2742.91l0.034,0l-0.034,0Z" style="fill:#9a9d9f;fill-rule:nonzero;"/><path d="M2844.59,2742.91l0.034,-0.004l0,0.004l-0.034,0Z" style="fill:#9a9d9f;fill-rule:nonzero;"/><path d="M2844.59,2742.91l0,-0.004l0.034,0l-0.034,0.004Z" style="fill:#9a9d9f;fill-rule:nonzero;"/><path d="M2844.59,2742.91l0.034,0l-0.034,0Z" style="fill:#9a9d9f;fill-rule:nonzero;"/><rect x="2844.59" y="2742.9" width="0.034" height="0.004" style="fill:#9a9d9f;fill-rule:nonzero;"/><path d="M2844.59,2742.9l0.034,0l-0.034,0Z" style="fill:#9a9d9f;fill-rule:nonzero;"/><rect x="2844.59" y="2742.9" width="0.034" height="0.004" style="fill:#9a9d9f;fill-rule:nonzero;"/><path d="M2844.59,2742.9l0.034,0l-0.034,0Z" style="fill:#9a9d9f;fill-rule:nonzero;"/><rect x="2844.59" y="2742.89" width="0.034" height="0.004" style="fill:#9a9d9f;fill-rule:nonzero;"/><path d="M2844.59,2742.89l0.034,0l-0.034,0Z" style="fill:#9a9d9f;fill-rule:nonzero;"/><path d="M2844.59,2742.89l0.034,0l-0.034,0Z" style="fill:#9a9d9f;fill-rule:nonzero;"/><path d="M2844.59,2742.89l0,-0.004l0.034,0l-0.034,0.004Z" style="fill:#9a9d9f;fill-rule:nonzero;"/><path d="M2844.59,2742.89l0.034,0l-0.034,0Z" style="fill:#9a9d9f;fill-rule:nonzero;"/><rect x="2844.59" y="2742.89" width="0.034" height="0.004" style="fill:#9a9d9f;fill-rule:nonzero;"/><path d="M2844.59,2742.89l0.034,0l-0.034,0Z" style="fill:#9a9d9f;fill-rule:nonzero;"/><rect x="2844.59" y="2742.88" width="0.034" height="0.004" style="fill:#9a9d9f;fill-rule:nonzero;"/><path d="M2844.59,2742.88l0.034,0l-0.034,0Z" style="fill:#9a9d9f;fill-rule:nonzero;"/><rect x="2844.59" y="2742.88" width="0.034" height="0.004" style="fill:#9a9d9f;fill-rule:nonzero;"/><path d="M2844.59,2742.88l0.034,0l-0.034,0Z" style="fill:#9a9d9f;fill-rule:nonzero;"/><rect x="2844.59" y="2742.88" width="0.034" height="0.004" style="fill:#9a9d9f;fill-rule:nonzero;"/><path d="M2844.59,2742.88l0.034,0l-0.034,0Z" style="fill:#9a9d9f;fill-rule:nonzero;"/><path d="M2844.59,2742.88l0.034,0l-0.034,0Z" style="fill:#9a9d9f;fill-rule:nonzero;"/><rect x="2844.59" y="2742.87" width="0.034" height="0.004" style="fill:#9a9d9f;fill-rule:nonzero;"/><path d="M2844.59,2742.87l0.034,0l-0.034,0Z" style="fill:#9a9d9f;fill-rule:nonzero;"/><rect x="2844.59" y="2742.87" width="0.034" height="0.004" style="fill:#9a9d9f;fill-rule:nonzero;"/><path d="M2844.59,2742.87l0.034,0l-0.034,0Z" style="fill:#9a9d9f;fill-rule:nonzero;"/><rect x="2844.59" y="2742.87" width="0.034" height="0.004" style="fill:#9a9d9f;fill-rule:nonzero;"/><path d="M2844.59,2742.87l0.034,0l-0.034,0Z" style="fill:#9a9d9f;fill-rule:nonzero;"/><rect x="2844.59" y="2742.86" width="0.034" height="0.004" style="fill:#9a9d9f;fill-rule:nonzero;"/><path d="M2844.59,2742.86l0.034,0l-0.034,0Z" style="fill:#9a9d9f;fill-rule:nonzero;"/><path d="M2844.59,2742.86l0.034,0l-0.034,0Z" style="fill:#9a9d9f;fill-rule:nonzero;"/><rect x="2844.59" y="2742.86" width="0.034" height="0.004" style="fill:#9a9d9f;fill-rule:nonzero;"/><path d="M2844.59,2742.86l0.034,0l-0.034,0Z" style="fill:#9a9d9f;fill-rule:nonzero;"/><rect x="2844.59" y="2742.85" width="0.034" height="0.004" style="fill:#9a9d9f;fill-rule:nonzero;"/><path d="M2844.59,2742.85l0.034,0l-0.034,0Z" style="fill:#9a9d9f;fill-rule:nonzero;"/><rect x="2844.59" y="2742.85" width="0.034" height="0.004" style="fill:#9a9d9f;fill-rule:nonzero;"/><path d="M2844.59,2742.85l0.034,0l-0.034,0Z" style="fill:#9a9d9f;fill-rule:nonzero;"/><rect x="2844.59" y="2742.85" width="0.034" height="0.004" style="fill:#9a9d9f;fill-rule:nonzero;"/><path d="M2844.59,2742.85l0.034,0l-0.034,0Z" style="fill:#9a9d9f;fill-rule:nonzero;"/><path d="M2844.59,2742.85l0.034,0l-0.034,0Z" style="fill:#9a9d9f;fill-rule:nonzero;"/><rect x="2844.59" y="2742.84" width="0.034" height="0.004" style="fill:#9a9d9f;fill-rule:nonzero;"/><path d="M2844.59,2742.84l0.034,0l-0.034,0Z" style="fill:#9a9d9f;fill-rule:nonzero;"/><rect x="2844.59" y="2742.84" width="0.034" height="0.004" style="fill:#9a9d9f;fill-rule:nonzero;"/></g></g><g><path d="M3328.13,2741.79l0,-658.838c0,-29.912 -24.453,-54.369 -54.342,-54.369l-1053.36,0c-29.9,0 -54.369,24.457 -54.369,54.369l0,658.838l1162.07,0Z" style="fill:#151d20;fill-rule:nonzero;"/><rect x="2203.43" y="2069.38" width="1087.32" height="631.986" style="fill:#fff;fill-rule:nonzero;"/><path d="M2427.15,2069.38l47.051,607.659l545.784,0l47.047,-607.659l-639.882,0Z" style="fill:#d6d4d4;fill-rule:nonzero;"/><rect x="2474.2" y="1986.64" width="545.784" height="690.391" style="fill:#2dbdbc;fill-rule:nonzero;"/><path d="M2585.46,2078.27c0,8.759 -7.107,15.87 -15.874,15.87c-8.759,0 -15.854,-7.111 -15.854,-15.87c0,-8.756 7.095,-15.867 15.854,-15.867c8.767,0 15.874,7.111 15.874,15.867Z" style="fill:#151d20;fill-rule:nonzero;"/><path d="M2939.74,2078.27c0,8.759 -7.092,15.87 -15.858,15.87c-8.775,0 -15.863,-7.111 -15.863,-15.87c0,-8.756 7.088,-15.867 15.863,-15.867c8.766,0 15.858,7.111 15.858,15.867Z" style="fill:#151d20;fill-rule:nonzero;"/><path d="M2576.64,2078.66l0,-77.477c0,-92.254 75.042,-167.304 167.292,-167.304l6.325,0c92.243,0 167.285,75.05 167.285,167.304l0,77.477l12.646,0l0,-77.477c0,-99.23 -80.719,-179.954 -179.931,-179.954l-6.325,0c-99.234,0 -179.954,80.724 -179.954,179.954l0,77.477l12.662,0Z" style="fill:#151d20;fill-rule:nonzero;"/><path d="M2856.75,2342.1c0,60.56 -49.097,109.662 -109.669,109.662c-60.563,0 -109.638,-49.102 -109.638,-109.662c0,-60.559 49.075,-109.65 109.638,-109.65c60.572,0 109.669,49.091 109.669,109.65Z" style="fill:#fff;fill-rule:nonzero;"/><path d="M2763.22,2332.19l-7.165,0l-29.843,0l2.477,11.139l44.153,0l2.955,-11.139l-12.577,0Z" style="fill:#2dbdbc;fill-rule:nonzero;"/><path d="M2729.57,2370.23c-6.206,0 -11.231,5.029 -11.231,11.197c0,6.18 5.025,11.198 11.231,11.198c6.153,0 11.171,-5.018 11.171,-11.198c0,-6.168 -5.018,-11.197 -11.171,-11.197Z" style="fill:#2dbdbc;fill-rule:nonzero;"/><path d="M2771.69,2370.23c-6.191,0 -11.209,5.029 -11.209,11.197c0,6.18 5.018,11.198 11.209,11.198c6.175,0 11.193,-5.018 11.193,-11.198c0,-6.168 -5.018,-11.197 -11.193,-11.197Z" style="fill:#2dbdbc;fill-rule:nonzero;"/><path d="M2780.41,2351.72l-0.334,1.13l-59.39,0l-7.441,-30.16l75.851,0l-8.686,29.03Zm19.669,-46.33c-0.537,-0.173 -1.07,-0.234 -1.587,-0.234c-2.396,0 -4.597,1.533 -5.317,3.944l-0.725,2.488l-81.953,0l-4.213,-15.778c-0.617,-2.465 -2.856,-4.228 -5.379,-4.228l-28.616,0c-3.066,0 -5.562,2.491 -5.562,5.57c0,3.047 2.496,5.539 5.562,5.543l24.254,0l14.387,57.033c0.625,2.464 2.867,4.236 5.386,4.236l67.877,0c2.438,0 4.619,-1.633 5.309,-3.972l14.299,-47.691c0.172,-0.54 0.245,-1.077 0.245,-1.598c0,-2.396 -1.556,-4.597 -3.967,-5.313Z" style="fill:#2dbdbc;fill-rule:nonzero;"/><path d="M3206.99,2568.2c0,29.103 -23.594,52.689 -52.686,52.689c-29.095,0 -52.689,-23.586 -52.689,-52.689c0,-29.092 23.594,-52.679 52.689,-52.679c29.092,0 52.686,23.587 52.686,52.679Z" style="fill:#fff;fill-rule:nonzero;"/><path d="M699.994,2291.75c55.086,0 102.8,40.845 102.719,99.71c-0.115,74.505 -57.478,105.931 -51.685,145.523c-5.547,13.159 -9.266,21.581 -9.266,21.581l-83.533,0c0,0 -13.068,-8.471 -10.289,-23.981c7.414,-41.136 -50.646,-67.376 -50.646,-143.123c0,-55.078 47.641,-99.71 102.7,-99.71Z" style="fill:#fdd21b;"/><rect x="680.256" y="2417.5" width="4.497" height="121.932" style="fill:#fff;"/><rect x="659.391" y="2415.25" width="81.015" height="4.489" style="fill:#fff;"/><rect x="715.239" y="2417.5" width="4.493" height="121.928" style="fill:#fff;"/><rect x="668.123" y="2598.28" width="62.024" height="15.713" style="fill:#151d20;"/><rect x="645.395" y="2536.76" width="108.998" height="66.271" style="fill:#fff;"/><path d="M755.754,2558.26l0.847,-18.002l-113.211,0l0.847,18.002l111.517,0Z" style="fill:#151d20;"/><path d="M755.754,2578.64l0.847,-18.017l-113.211,0l0.847,18.017l111.517,0Z" style="fill:#151d20;"/><path d="M755.754,2599.03l0.847,-18.009l-113.211,0l0.847,18.009l111.517,0Z" style="fill:#151d20;"/><rect x="698.254" y="2603.03" width="31.894" height="10.971" style="fill:#454a4d;fill-rule:nonzero;"/><path d="M754.393,2603.03l-24.246,0l-31.893,0l0,-3.998l56.139,0l0,3.998Z" style="fill:#fff;fill-rule:nonzero;"/><rect x="698.254" y="2578.64" width="56.14" height="2.377" style="fill:#fff;fill-rule:nonzero;"/><path d="M751.008,2536.76l-0.011,0c-2.503,-17.814 7.759,-33.991 19.784,-53.212l0.004,0.004c-12.022,19.217 -22.276,35.398 -19.777,53.208Z" style="fill:#70b3e2;fill-rule:nonzero;"/><path d="M770.785,2483.55l-0.004,-0.004c13.766,-22.007 29.847,-48.001 31.748,-85.005c-1.901,37.004 -17.982,63.002 -31.744,85.009Zm31.744,-85.016c0.004,-0.054 0.004,-0.108 0.008,-0.161c-0.004,0.053 -0.004,0.107 -0.008,0.161Zm0.011,-0.215c0,-0.046 0.004,-0.096 0.008,-0.146c-0.004,0.05 -0.008,0.1 -0.008,0.146Zm0.008,-0.211c0.004,-0.042 0.004,-0.076 0.008,-0.123c-0.004,0.047 -0.004,0.081 -0.008,0.123Zm0.012,-0.211c0.004,-0.053 0.004,-0.103 0.007,-0.157c-0.003,0.05 -0.003,0.108 -0.007,0.157Zm0.007,-0.207c0.004,-0.05 0.008,-0.092 0.008,-0.138c0,0.046 -0.004,0.088 -0.008,0.138Zm0.012,-0.214c0,-0.031 0.004,-0.058 0.004,-0.088c0,0.026 -0.004,0.061 -0.004,0.088Zm0.008,-0.215c0.003,-0.015 0.003,-0.027 0.003,-0.038c0,0.011 0,0.023 -0.003,0.038Zm0.011,-0.211c0,-0.019 0,-0.046 0,-0.065c0,0.019 0,0.046 0,0.065Zm0.008,-0.211c0,-0.019 0,-0.042 0,-0.061c0,0.019 0,0.042 0,0.061Zm0.007,-0.214c0,-0.016 0,-0.035 0,-0.054c0,0.019 0,0.038 0,0.054Zm0.008,-0.215c0,-0.008 0,-0.019 0,-0.027c0,0.008 0,0.019 0,0.027Zm0.008,-0.211c0,-0.015 0,-0.034 0,-0.053c0,0.019 0,0.038 0,0.053Zm0.007,-0.211c0,-0.019 0,-0.03 0,-0.05c0,0.016 0,0.031 0,0.05Zm0.008,-0.214c0,-0.008 0,-0.023 0,-0.031c0,0.008 0,0.023 0,0.031Zm0.011,-0.426c0,-0.011 0,-0.023 0,-0.034c0,0.011 0,0.023 0,0.034Zm0.008,-0.211c0,-0.034 0,-0.061 0,-0.092c0,0.031 0,0.058 0,0.092Zm0.004,-0.214c0,-0.023 0,-0.046 0,-0.069c0,0.023 0,0.046 0,0.069Zm0.004,-0.219c0,-0.007 0.004,-0.011 0.004,-0.023c0,0.012 -0.004,0.016 -0.004,0.023Zm0.008,-0.215c0,-0.011 0,-0.019 0,-0.034c0,0.015 0,0.023 0,0.034Zm0.003,-0.214c0,-0.012 0,-0.023 0,-0.035c0,0.012 0,0.023 0,0.035Zm0.004,-0.211c0,-0.027 0,-0.054 0,-0.08c0,0.026 0,0.053 0,0.08Zm0.004,-0.219c0,-0.003 0,-0.007 0,-0.011c0,0.004 0,0.008 0,0.011Zm0.004,-0.214c0,-0.019 0,-0.031 0,-0.05c0,0.019 0,0.031 0,0.05Zm0.004,-0.215c0,-0.034 0,-0.073 0,-0.107c0,0.034 0,0.073 0,0.107Zm0.004,-0.215c0,-0.034 0,-0.065 0,-0.099c0,0.034 0,0.065 0,0.099Zm0,-0.214c0.003,-0.019 0.003,-0.042 0.003,-0.062c0,0.02 0,0.043 -0.003,0.062Zm0.003,-0.345c0.004,-0.069 0.004,-0.127 0.004,-0.196c0,0.069 0,0.127 -0.004,0.196Zm0.008,-0.502c0,-0.031 0,-0.062 0,-0.092c0,0.03 0,0.061 0,0.092Z" style="fill:#b5d9f3;fill-rule:nonzero;"/><path d="M750.997,2536.76l-31.265,0l0,-117.014l20.673,0l0,-4.489l-42.151,0l0,-123.408c0.582,-0.011 1.153,-0.092 1.74,-0.092c55.086,0 102.8,40.845 102.719,99.71l0,0.675c-0.004,0.099 -0.004,0.207 -0.004,0.306c0,0.069 0,0.127 -0.004,0.196c0,0.096 0,0.188 0,0.283c0,0.02 0,0.043 -0.003,0.062l0,0.214c0,0.035 0,0.069 -0.004,0.108c0,0.034 0,0.073 0,0.107c0,0.054 0,0.111 -0.004,0.165c0,0.019 0,0.031 0,0.05c0,0.069 0,0.134 -0.004,0.203c0,0.004 0,0.008 0,0.011c0,0.046 0,0.096 -0.004,0.139c0,0.026 0,0.053 0,0.08c0,0.057 -0.004,0.119 -0.004,0.176c0,0.012 0,0.023 0,0.035c0,0.061 -0.003,0.123 -0.003,0.18c0,0.015 0,0.023 0,0.034c-0.004,0.066 -0.004,0.131 -0.004,0.192c0,0.012 -0.004,0.016 -0.004,0.023c0,0.05 0,0.1 -0.004,0.15c0,0.023 0,0.046 0,0.069c0,0.038 -0.004,0.08 -0.004,0.122c0,0.031 0,0.058 0,0.092c-0.004,0.062 -0.004,0.115 -0.008,0.177c0,0.011 0,0.023 0,0.034c-0.003,0.13 -0.007,0.261 -0.011,0.395c0,0.008 0,0.023 0,0.031c-0.004,0.053 -0.004,0.111 -0.008,0.164c0,0.02 0,0.031 0,0.05c-0.003,0.054 -0.003,0.104 -0.007,0.158c0,0.019 0,0.038 0,0.053c-0.004,0.062 -0.004,0.123 -0.008,0.184c0,0.008 0,0.019 0,0.027c0,0.054 -0.004,0.107 -0.008,0.161c0,0.019 0,0.038 0,0.054c-0.004,0.053 -0.004,0.099 -0.007,0.153c0,0.019 0,0.042 0,0.061c-0.004,0.05 -0.004,0.096 -0.008,0.146c0,0.019 0,0.046 0,0.065c-0.004,0.058 -0.008,0.115 -0.008,0.173c0,0.011 0,0.023 -0.003,0.038c0,0.042 -0.004,0.084 -0.004,0.127c0,0.03 -0.004,0.057 -0.004,0.088c0,0.027 -0.004,0.049 -0.004,0.076c0,0.046 -0.004,0.088 -0.008,0.138c0,0.016 0,0.031 0,0.05c-0.003,0.054 -0.003,0.104 -0.007,0.157c0,0.031 -0.004,0.058 -0.004,0.088c-0.004,0.047 -0.004,0.081 -0.008,0.123c0,0.023 0,0.042 0,0.065c-0.004,0.05 -0.008,0.1 -0.008,0.146c-0.003,0.019 -0.003,0.034 -0.003,0.054c-0.004,0.053 -0.004,0.107 -0.008,0.161c0,0.004 0,0.004 0,0.007c-1.901,37.004 -17.982,62.998 -31.748,85.005c-12.025,19.221 -22.287,35.398 -19.784,53.212Zm-35.758,0l-16.985,0l0,-117.014l16.985,0l0,117.014Z" style="fill:#fddb4a;fill-rule:nonzero;"/><path d="M740.405,2419.74l-20.673,0l0,-2.239l-4.493,0l0,2.239l-16.985,0l0,-4.489l42.151,0l0,4.489Z" style="fill:#fff;fill-rule:nonzero;"/><path d="M719.732,2536.76l-4.493,0l0,-117.014l0,-2.239l4.493,0l0,119.253Z" style="fill:#fff;fill-rule:nonzero;"/><path d="M754.393,2560.63l-56.139,0l0,-2.365l56.139,0l0,2.365Zm0,-20.367l-56.139,0l0,-3.503l56.139,0l0,3.503Z" style="fill:#fff;fill-rule:nonzero;"/><path d="M755.754,2558.26l-1.361,0l-56.139,0l0,-18.002l58.347,0l-0.847,18.002Z" style="fill:#454a4d;fill-rule:nonzero;"/><path d="M755.754,2578.64l-1.361,0l-56.139,0l0,-18.017l58.347,0l-0.847,18.017Z" style="fill:#454a4d;fill-rule:nonzero;"/><path d="M755.754,2599.03l-1.361,0l-56.139,0l0,-18.009l58.347,0l-0.099,2.1l-0.748,15.909Z" style="fill:#454a4d;fill-rule:nonzero;"/><path d="M1067.81,847.475l0,15.307l-19.163,0l0,62.085l-18.369,0l0,-62.085l-19.278,0l0,-15.307l56.81,0Z" style="fill:#b0b0b1;fill-rule:nonzero;"/><path d="M1087.46,894.645l16.395,0l-8.123,-27.16l-8.272,27.16Zm20.7,-47.17l24.231,77.392l-19.485,0l-4.769,-15.935l-25.028,0l-4.845,15.935l-15.901,0l24.806,-77.392l20.991,0Z" style="fill:#b0b0b1;fill-rule:nonzero;"/><path d="M1199.58,847.475l-21.141,35.938l23.917,41.454l-20.988,0l-15.525,-28.079l-15.537,28.079l-17.181,0l23.978,-41.254l-21.256,-36.138l21.114,0l12.539,23.499l13.171,-23.499l16.909,0Z" style="fill:#b0b0b1;fill-rule:nonzero;"/><path d="M1206.04,2244.49l229.098,186.874l-229.968,197.238l-228.217,-197.238l229.087,-186.874Z" style="fill:#9e312e;fill-rule:nonzero;"/><rect x="1007.79" y="2286.26" width="395.198" height="21.11" style="fill:#f26425;fill-rule:nonzero;"/><rect x="1007.79" y="2307.37" width="395.198" height="380.758" style="fill:#fafbfc;fill-rule:nonzero;"/><rect x="1041.81" y="2412.64" width="148.053" height="8.978" style="fill:#b0b0b1;fill-rule:nonzero;"/><rect x="1041.81" y="2449.4" width="327.144" height="8.989" style="fill:#b0b0b1;fill-rule:nonzero;"/><rect x="1041.81" y="2469.83" width="327.144" height="8.97" style="fill:#b0b0b1;fill-rule:nonzero;"/><rect x="1041.81" y="2490.24" width="327.144" height="8.974" style="fill:#b0b0b1;fill-rule:nonzero;"/><rect x="1041.81" y="2510.66" width="327.144" height="8.985" style="fill:#b0b0b1;fill-rule:nonzero;"/><rect x="1041.81" y="2531.12" width="327.144" height="8.974" style="fill:#b0b0b1;fill-rule:nonzero;"/><rect x="1041.81" y="2551.53" width="327.144" height="8.993" style="fill:#b0b0b1;fill-rule:nonzero;"/><rect x="1041.81" y="2571.96" width="327.144" height="8.993" style="fill:#b0b0b1;fill-rule:nonzero;"/><rect x="1041.81" y="2592.38" width="327.144" height="8.985" style="fill:#b0b0b1;fill-rule:nonzero;"/><path d="M1435.14,2431.36l0,283.75c0,13.739 -11.24,24.955 -24.963,24.955l-28.107,0c-98.962,0 -308.195,0 -380.163,0c-15.74,0 433.233,-308.705 433.233,-308.705Z" style="fill:#d54139;fill-rule:nonzero;"/><path d="M976.951,2431.36l0,283.75c0,13.739 11.228,24.955 24.952,24.955l408.27,0c15.755,0 -433.222,-308.705 -433.222,-308.705Z" style="fill:#e74c3c;fill-rule:nonzero;"/><path d="M1153.23,2378.51l-10.929,-36.103l0,36.103l-8.69,0l0,-44.279l16.15,0l7.77,26.5l8.177,-26.5l16.203,0l0,44.279l-10.449,0l0,-36.103l-11.133,36.103l-7.099,0Z" style="fill:#b0b0b1;fill-rule:nonzero;"/><path d="M1200.64,2361.22l9.388,0l-4.654,-15.537l-4.734,15.537Zm11.845,-26.991l13.862,44.279l-11.151,0l-2.73,-9.119l-14.306,0l-2.787,9.119l-9.085,0l14.184,-44.279l12.013,0Z" style="fill:#b0b0b1;fill-rule:nonzero;"/><rect x="1231.12" y="2334.23" width="10.346" height="44.279" style="fill:#b0b0b1;fill-rule:nonzero;"/><path d="M1260.87,2369.74l17.611,0l0,8.763l-28.126,0l0,-44.279l10.515,0l0,35.516Z" style="fill:#b0b0b1;fill-rule:nonzero;"/></g></svg>